<svg width="133" height="24" viewBox="0 0 133 24" fill="none" xmlns="http://www.w3.org/2000/svg">
<path fill-rule="evenodd" clip-rule="evenodd" d="M6.97632 0L0 6.97632V16.8425L6.97632 23.8188H16.8422L23.8188 16.8425V6.97632L16.8422 0H6.97632Z" fill="#D8D9D9"/>
<path fill-rule="evenodd" clip-rule="evenodd" d="M7.04163 0.157227L0.157227 7.04139V16.7772L7.04163 23.6614H16.7775L23.6616 16.7772V7.04139L16.7775 0.157227H7.04163Z" fill="white"/>
<path fill-rule="evenodd" clip-rule="evenodd" d="M7.49558 22.5652L1.25342 16.323V7.49558L7.49558 1.25342H16.3233L22.5652 7.49558V16.323L16.3233 22.5652H7.49558Z" fill="#ED1E45"/>
<path fill-rule="evenodd" clip-rule="evenodd" d="M6.08786 12.5099L5.92106 11.7419C5.81714 11.324 5.71706 10.8803 5.62082 10.4108C5.52434 9.94165 5.42786 9.48925 5.33162 9.05413H5.28722C5.19818 9.49789 5.10722 9.95221 5.01482 10.4173C4.92194 10.8824 4.82378 11.324 4.7201 11.7419L4.54202 12.5099H6.08786ZM6.42146 13.9818H4.20842L3.7637 15.9656H2.0957L4.36418 7.62061H6.33242L8.60114 15.9656H6.86618L6.42146 13.9818Z" fill="white"/>
<path fill-rule="evenodd" clip-rule="evenodd" d="M12.1707 14.5064C13.0676 14.5064 13.5162 14.1268 13.5162 13.3674C13.5162 13.0004 13.405 12.7338 13.1826 12.5675C12.9601 12.4009 12.6226 12.3179 12.1707 12.3179H11.2477V14.5064H12.1707ZM12.015 10.9866C12.4153 10.9866 12.7062 10.8952 12.8878 10.7116C13.0695 10.5282 13.1605 10.2786 13.1605 9.96277C13.1605 9.64717 13.0676 9.42109 12.8823 9.28453C12.697 9.14797 12.4114 9.07957 12.026 9.07957H11.2477V10.9866H12.015ZM9.61304 7.62061H12.0927C12.471 7.62061 12.8211 7.65253 13.1437 7.71661C13.4662 7.78069 13.7478 7.89373 13.989 8.05573C14.2297 8.21797 14.4188 8.43133 14.5561 8.69557C14.6931 8.96029 14.7618 9.29317 14.7618 9.69397C14.7618 9.88189 14.7375 10.0696 14.6895 10.2572C14.641 10.4449 14.5688 10.6199 14.4726 10.7819C14.3761 10.9441 14.2501 11.0891 14.0946 11.217C13.9388 11.3452 13.7571 11.439 13.5495 11.4988V11.5499C14.0684 11.6608 14.4596 11.8744 14.7229 12.1897C14.9859 12.5056 15.1174 12.945 15.1174 13.508C15.1174 13.9348 15.0452 14.3017 14.9007 14.6089C14.7562 14.9161 14.5561 15.17 14.3002 15.3704C14.0444 15.5711 13.7458 15.7204 13.405 15.8183C13.064 15.9167 12.697 15.9656 12.3042 15.9656H9.61304V7.62061Z" fill="white"/>
<path fill-rule="evenodd" clip-rule="evenodd" d="M18.7874 11.6394C19.677 11.6394 20.1218 11.1959 20.1218 10.3084C20.1218 9.87325 20.0087 9.56605 19.7826 9.38677C19.5563 9.20749 19.2246 9.11797 18.7874 9.11797H17.8756V11.6394H18.7874ZM16.2407 7.62061H18.8874C19.2803 7.62061 19.6492 7.66525 19.9938 7.75501C20.3387 7.84453 20.639 7.99381 20.8946 8.20285C21.1504 8.41213 21.3522 8.68933 21.5008 9.03493C21.6489 9.38029 21.723 9.80485 21.723 10.3084C21.723 10.7946 21.647 11.217 21.495 11.5753C21.3431 11.9339 21.1374 12.2281 20.878 12.4585C20.6183 12.6889 20.3181 12.8598 19.9773 12.9704C19.636 13.0816 19.2729 13.137 18.8874 13.137H17.8756V15.9654H16.2407V7.62061Z" fill="white"/>
<path fill-rule="evenodd" clip-rule="evenodd" d="M46.3724 18C46.9042 18 47.402 17.8773 47.8658 17.6319C48.3296 17.3865 48.7408 17.0962 49.0995 16.761H49.1551L49.285 17.7845H50.5465V5H49.0067V8.35773L49.0809 9.84807C48.6852 9.53683 48.2956 9.29144 47.9122 9.11188C47.5288 8.93232 47.0773 8.84254 46.5579 8.84254C46.0384 8.84254 45.5437 8.95028 45.0737 9.16575C44.6038 9.38122 44.1894 9.68646 43.8308 10.0815C43.4721 10.4765 43.1845 10.9583 42.9681 11.5269C42.7517 12.0955 42.6434 12.733 42.6434 13.4392C42.6434 14.8996 42.9805 16.0249 43.6545 16.8149C44.3286 17.605 45.2345 18 46.3724 18ZM34.7457 14.1934L33.5769 17.7845H32L36.1185 6.00552H37.8624L41.9809 17.7845H40.3298L39.1796 14.1934H34.7457ZM35.1353 12.9903H38.79L38.2149 11.1948C37.9922 10.5364 37.782 9.88099 37.5841 9.22859C37.3862 8.5762 37.1883 7.90884 36.9904 7.22652H36.9162C36.7307 7.90884 36.539 8.5762 36.3411 9.22859C36.1432 9.88099 35.933 10.5364 35.7104 11.1948L35.1353 12.9903ZM44.8697 15.8812C45.3025 16.4678 45.9147 16.761 46.7063 16.761C47.1268 16.761 47.5226 16.6623 47.8936 16.4648C48.2646 16.2673 48.6357 15.965 49.0067 15.558V10.9972C48.6233 10.6621 48.2554 10.4256 47.9029 10.288C47.5504 10.1503 47.1886 10.0815 46.8176 10.0815C46.4589 10.0815 46.1219 10.1623 45.8065 10.3239C45.4911 10.4855 45.216 10.7129 44.981 11.0062C44.746 11.2995 44.5605 11.6496 44.4244 12.0566C44.2884 12.4636 44.2203 12.9185 44.2203 13.4213C44.2203 14.4747 44.4368 15.2947 44.8697 15.8812ZM57.3126 18C57.8321 18 58.3268 17.8953 58.7968 17.6858C59.2668 17.4763 59.6811 17.168 60.0398 16.761C60.3984 16.3541 60.6829 15.8573 60.8931 15.2707C61.1034 14.6842 61.2085 14.0198 61.2085 13.2776C61.2085 12.6073 61.1312 11.9998 60.9766 11.4551C60.822 10.9105 60.5932 10.4436 60.2902 10.0546C59.9872 9.66552 59.6131 9.36625 59.1678 9.15677C58.7226 8.94728 58.2093 8.84254 57.628 8.84254C57.1209 8.84254 56.6262 8.95925 56.1439 9.19268C55.6615 9.42611 55.2163 9.71639 54.8081 10.0635L54.8452 8.48343V5H53.324V17.7845H54.5484L54.6783 16.8867H54.7339C55.1297 17.2339 55.5533 17.5062 56.0047 17.7037C56.4562 17.9012 56.8921 18 57.3126 18ZM56.0233 16.5546C56.4129 16.6922 56.7561 16.761 57.0529 16.761C57.4239 16.761 57.7672 16.6802 58.0825 16.5186C58.3979 16.357 58.67 16.1296 58.8988 15.8363C59.1276 15.543 59.307 15.1809 59.4368 14.75C59.5667 14.3191 59.6316 13.8343 59.6316 13.2956C59.6316 12.8168 59.5883 12.3798 59.5017 11.9848C59.4152 11.5898 59.276 11.2516 59.0843 10.9703C58.8926 10.689 58.6453 10.4705 58.3423 10.3149C58.0392 10.1593 57.6775 10.0815 57.257 10.0815C56.5273 10.0815 55.7234 10.4765 54.8452 11.2666V15.8453C55.241 16.1805 55.6337 16.4169 56.0233 16.5546ZM64.9321 18C65.1424 18 65.3155 17.988 65.4516 17.9641C65.5876 17.9401 65.7051 17.9042 65.8041 17.8564L65.6 16.7431C65.5134 16.767 65.4485 16.779 65.4052 16.779H65.2661C65.1548 16.779 65.0558 16.7311 64.9692 16.6354C64.8827 16.5396 64.8394 16.372 64.8394 16.1326V5H63.3181V16.0249C63.3181 16.6713 63.4418 17.1621 63.6892 17.4972C63.9365 17.8324 64.3508 18 64.9321 18ZM72.8763 17.6948C72.3754 17.8983 71.8467 18 71.2901 18C70.7336 18 70.2048 17.8983 69.7039 17.6948C69.203 17.4913 68.7609 17.195 68.3775 16.8059C67.9941 16.4169 67.688 15.9381 67.4592 15.3695C67.2304 14.8009 67.1159 14.1575 67.1159 13.4392C67.1159 12.709 67.2304 12.0596 67.4592 11.491C67.688 10.9224 67.9941 10.4406 68.3775 10.0456C68.7609 9.65055 69.203 9.35129 69.7039 9.14779C70.2048 8.94429 70.7336 8.84254 71.2901 8.84254C71.8467 8.84254 72.3754 8.94429 72.8763 9.14779C73.3772 9.35129 73.8193 9.65055 74.2027 10.0456C74.5861 10.4406 74.8923 10.9224 75.1211 11.491C75.3499 12.0596 75.4643 12.709 75.4643 13.4392C75.4643 14.1575 75.3499 14.8009 75.1211 15.3695C74.8923 15.9381 74.5861 16.4169 74.2027 16.8059C73.8193 17.195 73.3772 17.4913 72.8763 17.6948ZM71.2901 16.779C70.9067 16.779 70.5542 16.6982 70.2327 16.5366C69.9111 16.375 69.6359 16.1476 69.4071 15.8543C69.1783 15.561 69.002 15.2109 68.8784 14.8039C68.7547 14.3969 68.6929 13.942 68.6929 13.4392C68.6929 12.9365 68.7547 12.4786 68.8784 12.0656C69.002 11.6526 69.1783 11.2965 69.4071 10.9972C69.6359 10.698 69.9111 10.4675 70.2327 10.3059C70.5542 10.1443 70.9067 10.0635 71.2901 10.0635C71.6735 10.0635 72.026 10.1443 72.3476 10.3059C72.6691 10.4675 72.9443 10.698 73.1731 10.9972C73.4019 11.2965 73.5782 11.6526 73.7018 12.0656C73.8255 12.4786 73.8874 12.9365 73.8874 13.4392C73.8874 13.942 73.8255 14.3969 73.7018 14.8039C73.5782 15.2109 73.4019 15.561 73.1731 15.8543C72.9443 16.1476 72.6691 16.375 72.3476 16.5366C72.026 16.6982 71.6735 16.779 71.2901 16.779ZM82.6942 17.7037C82.1995 17.9012 81.68 18 81.1358 18C80.5422 18 79.9856 17.8983 79.4662 17.6948C78.9467 17.4913 78.4984 17.195 78.1212 16.8059C77.7439 16.4169 77.4471 15.9381 77.2307 15.3695C77.0142 14.8009 76.906 14.1575 76.906 13.4392C76.906 12.709 77.0235 12.0596 77.2585 11.491C77.4935 10.9224 77.8089 10.4406 78.2046 10.0456C78.6004 9.65055 79.0611 9.35129 79.5867 9.14779C80.1124 8.94429 80.6658 8.84254 81.2471 8.84254C81.8408 8.84254 82.3479 8.94429 82.7684 9.14779C83.1889 9.35129 83.5599 9.5907 83.8815 9.86602L83.1023 10.8356C82.8426 10.6082 82.5674 10.4227 82.2768 10.279C81.9861 10.1354 81.6615 10.0635 81.3028 10.0635C80.8946 10.0635 80.5174 10.1443 80.1711 10.3059C79.8248 10.4675 79.528 10.698 79.2806 10.9972C79.0333 11.2965 78.8385 11.6526 78.6963 12.0656C78.554 12.4786 78.4829 12.9365 78.4829 13.4392C78.4829 13.942 78.5509 14.3969 78.687 14.8039C78.823 15.2109 79.0116 15.561 79.2528 15.8543C79.494 16.1476 79.7877 16.375 80.134 16.5366C80.4803 16.6982 80.8575 16.779 81.2657 16.779C81.6862 16.779 82.0727 16.6922 82.4252 16.5186C82.7777 16.3451 83.0961 16.1386 83.3806 15.8992L84.0485 16.8867C83.6403 17.2339 83.1889 17.5062 82.6942 17.7037ZM87.2712 15.4862L88.9594 13.5829L91.5938 17.7845H93.2634L89.8313 12.5594L92.8553 9.05801H91.1671L87.3268 13.6547H87.2712V5H85.7685V17.7845H87.2712V15.4862ZM97.321 13.8163V17.7845H94.5938V6.07735H98.7495C99.4173 6.07735 100.042 6.14019 100.623 6.26588C101.204 6.39157 101.712 6.60106 102.144 6.89434C102.577 7.18762 102.921 7.57666 103.174 8.06146C103.428 8.54627 103.554 9.1418 103.554 9.84807C103.554 10.5304 103.428 11.1229 103.174 11.6257C102.921 12.1285 102.577 12.5414 102.144 12.8646C101.712 13.1878 101.211 13.4273 100.642 13.5829C100.073 13.7385 99.4668 13.8163 98.8237 13.8163H97.321ZM98.6567 11.7155H97.321V8.17818H98.5825C99.3246 8.17818 99.8935 8.30387 100.289 8.55525C100.685 8.80663 100.883 9.23757 100.883 9.84807C100.883 11.093 100.141 11.7155 98.6567 11.7155ZM108.485 17.9372C108.256 17.9791 107.987 18 107.678 18C107.208 18 106.812 17.9282 106.49 17.7845C106.169 17.6409 105.912 17.4404 105.721 17.183C105.529 16.9256 105.39 16.6144 105.303 16.2493C105.217 15.8842 105.173 15.4742 105.173 15.0193V5.19751H107.9V15.1271C107.9 15.4024 107.953 15.5939 108.058 15.7017C108.163 15.8094 108.271 15.8633 108.383 15.8633H108.54C108.584 15.8633 108.642 15.8513 108.717 15.8273L109.051 17.7845C108.902 17.8444 108.714 17.8953 108.485 17.9372ZM112.988 18C113.619 18 114.16 17.8713 114.612 17.614C115.063 17.3566 115.487 17.0005 115.883 16.5456H115.938L116.142 17.7845H118.369V8.87845H115.641V14.768C115.369 15.1151 115.116 15.3665 114.881 15.5221C114.646 15.6777 114.355 15.7555 114.009 15.7555C113.613 15.7555 113.322 15.6358 113.137 15.3964C112.951 15.157 112.859 14.7141 112.859 14.0677V8.87845H110.132V14.4088C110.132 15.5341 110.357 16.4139 110.809 17.0483C111.26 17.6828 111.987 18 112.988 18ZM124.848 17.7756C124.378 17.9252 123.834 18 123.215 18C122.609 18 121.988 17.8863 121.351 17.6588C120.714 17.4314 120.161 17.1321 119.691 16.761L120.915 15.1091C121.336 15.4204 121.737 15.6538 122.121 15.8094C122.504 15.965 122.894 16.0428 123.29 16.0428C123.698 16.0428 123.995 15.977 124.18 15.8453C124.366 15.7136 124.458 15.5281 124.458 15.2887C124.458 15.145 124.406 15.0163 124.301 14.9026C124.196 14.7889 124.053 14.6842 123.874 14.5884C123.695 14.4926 123.494 14.4058 123.271 14.328C123.048 14.2502 122.82 14.1634 122.585 14.0677C122.3 13.9599 122.016 13.8343 121.731 13.6906C121.447 13.547 121.187 13.3704 120.952 13.1609C120.717 12.9514 120.525 12.706 120.377 12.4247C120.229 12.1434 120.154 11.8172 120.154 11.4461C120.154 11.0391 120.238 10.6621 120.405 10.3149C120.572 9.96777 120.81 9.67449 121.119 9.43508C121.428 9.19567 121.799 9.00714 122.232 8.86948C122.665 8.73181 123.147 8.66298 123.679 8.66298C124.384 8.66298 125.003 8.7797 125.534 9.01312C126.066 9.24655 126.53 9.50691 126.926 9.7942L125.701 11.3743C125.367 11.1349 125.04 10.9494 124.718 10.8177C124.397 10.686 124.075 10.6202 123.753 10.6202C123.061 10.6202 122.715 10.8536 122.715 11.3204C122.715 11.4641 122.764 11.5868 122.863 11.6885C122.962 11.7903 123.095 11.8831 123.262 11.9669C123.429 12.0506 123.62 12.1314 123.837 12.2093C124.053 12.2871 124.279 12.3679 124.514 12.4517C124.811 12.5594 125.105 12.6821 125.395 12.8198C125.686 12.9574 125.952 13.128 126.193 13.3315C126.434 13.535 126.629 13.7834 126.777 14.0767C126.926 14.3699 127 14.7201 127 15.1271C127 15.5341 126.92 15.9111 126.759 16.2583C126.598 16.6054 126.357 16.9077 126.035 17.1651C125.714 17.4224 125.318 17.6259 124.848 17.7756Z" fill="black"/>
</svg>
