<svg viewBox="0 0 90 90" xmlns="http://www.w3.org/2000/svg">
    <path d="M63.23 0a1 1 0 01.707.293l25.77 25.77a1 1 0 01.293.707v36.46a1 1 0 01-.293.707l-25.77 25.77a1 1 0 01-.707.293H26.77a1 1 0 01-.707-.293L.293 63.937A1 1 0 010 63.23V26.77a1 1 0 01.293-.707L26.063.293A1 1 0 0126.77 0zm-.415 2H27.184L2 27.184v35.631L27.185 88h35.629L88 62.814V27.185L62.815 2zm-4.033 28.364a1 1 0 011.015-.132l6.72 2.91a1 1 0 01.299 1.637l-27.48 26.6a1 1 0 01-1.403-.012l-14.76-14.76a1 1 0 01.088-1.493l5.04-3.97a1 1 0 011.106-.087l9.228 5.144zm.768 1.94L39.348 48.186a1 1 0 01-1.105.087l-9.229-5.145-3.631 2.86 13.268 13.268 25.697-24.874-4.798-2.078z" fill="#ED1E45" fill-rule="nonzero"/>
</svg>
