<svg viewBox="0 0 74 90" xmlns="http://www.w3.org/2000/svg">
    <path d="M37.012 0C47.464.126 55.876 8.575 56 18.98L56 30h17a1 1 0 01.993.883L74 31v58a1 1 0 01-1 1H1a1 1 0 01-1-1V31a1 1 0 011-1h16.999V19.325C17.941 8.759 26.423.127 37.012 0zM72 81H2v7h70v-7zm0-49H2v47h70V32zM29.472 48.493A8 8 0 0145 51.107a8.12 8.12 0 01-3.277 6.54l-.224.159.001 6.634a4.5 4.5 0 01-4.288 4.495L37 68.94a4.5 4.5 0 01-4.5-4.5l-.001-6.629-.158-.11a8.001 8.001 0 01-2.954-8.959zm8.521-3.212A6 6 0 0034 56.394l.5.289v7.757a2.5 2.5 0 105 0v-7.75l.492-.291A6.116 6.116 0 0043 51.123a6 6 0 00-5.007-5.842zM37.013 2C27.654 2.113 20.122 9.67 20 18.994L19.999 30H54V19.314C54.053 9.848 46.454 2.114 37.012 2z" fill="#ED1E45" fill-rule="nonzero"/>
</svg>
