<svg viewBox="0 0 90 90" xmlns="http://www.w3.org/2000/svg">
    <path d="M46.082 13.214C56.244 3.025 72.659-2.86 87.89 1.417a1 1 0 01.693.693c4.265 15.22-1.62 31.618-11.796 41.808L68.59 52.1 65.27 74.109a1 1 0 01-.198.462l-.084.096-15.04 15.04c-.614.614-1.665.208-1.706-.66l-.75-15.876-6.544 6.537a1 1 0 01-1.32.082l-.094-.083-1.594-1.593-10.21 2.85a1 1 0 01-.875-.169l-.101-.088-9.16-9.16-1.693-1.643-6.61-6.66a1 1 0 01-.28-.842l.027-.13 2.848-10.212-1.592-1.593a1 1 0 01-.084-1.32l.083-.094 6.536-6.546-15.875-.748c-.79-.037-1.198-.913-.8-1.533l.066-.09.074-.083 15.04-15.04a1 1 0 01.558-.282l22.007-3.323zM19.587 80.403a1 1 0 01.083 1.32l-.083.094-7.07 7.07a1 1 0 01-1.497-1.32l.083-.094 7.07-7.07a1 1 0 011.414 0zm-8.48-1.41a1 1 0 01.083 1.32l-.083.094-7.07 7.07a1 1 0 01-1.497-1.32l.083-.094 7.07-7.07a1 1 0 011.414 0zM66.208 54.48L49.403 71.26l.728 15.432L63.34 73.484l2.868-19.003zm-56.7 15.782a1 1 0 01.082 1.32l-.083.094-7.07 7.07a1 1 0 01-1.497-1.32l.083-.094 7.07-7.07a1 1 0 011.414 0zm4.001-16.58l-2.39 8.565 6.187 6.234 1.691 1.64 8.757 8.757 8.561-2.39L13.51 53.685zm5.77-10.8l-6.865 6.876L40.24 77.585l6.874-6.865-27.836-27.836zM38.29 23.847L20.692 41.469 48.53 69.307l17.623-17.598L38.29 23.846zm-.637 17.187a8 8 0 1111.313 11.314 8 8 0 01-11.313-11.314zm9.9 1.414a6 6 0 10-8.486 8.486 6 6 0 008.485-8.486zm38.83-39.36c-14.19-3.553-29.41 2.04-38.885 11.54l-7.795 7.803 27.865 27.865 7.804-7.792C84.753 33.11 90.327 18.138 87.03 4.1l-.117-.484-.109-.421zM35.52 23.79l-19.005 2.869L3.306 39.868l15.431.728L35.52 23.79z" fill="#ED1E45" fill-rule="nonzero"/>
</svg>
