<svg xmlns="http://www.w3.org/2000/svg" viewBox="0 0 90 90">
  <defs>
    <style>
      line,
      path
      {
        fill: none;
        stroke: #c70d2c;
        stroke-linecap: round;
        stroke-linejoin: round;
        stroke-width: 2px;
      }
    </style>
  </defs>
  <path d="M87.62 2.38c-17.27-4.85-33.31 4-40.83 11.54L11 49.76 40.24 79l35.84-35.79c7.51-7.52 16.38-23.56 11.54-40.83zM38.21 77l-10.75 3-9.17-9.17-1.68-1.63L10 62.54l3-10.75"/>
  <circle cx="43.31" cy="46.69" r="7" transform="rotate(-45 43.31 46.69)" fill="none" stroke="#c70d2c" stroke-linecap="round" stroke-linejoin="round" stroke-width="2"/>
  <path d="M8.8 70.97l-7.07 7.07M18.88 81.11l-7.07 7.07M10.4 79.7l-7.07 7.07"/>
  <path fill="none" stroke="#c70d2c" stroke-linecap="round" stroke-linejoin="round" stroke-width="2" d="M38.23 22.37l-22.19 3.35L1 40.76l18.44.87 28.93 28.93.87 18.44 15.04-15.04 3.35-22.19-29.4-29.4z"/>
</svg>
