<svg width="43" height="73" xmlns="http://www.w3.org/2000/svg">
    <g fill="none" fill-rule="evenodd">
        <g fill-rule="nonzero">
            <path d="M38.705 34.13L34 32.25a21.105 21.105 0 0 0 2.285-6.282l5.018.586a.883.883 0 1 0 .201-1.755l-4.963-.58c.285-2.794-.03-5.567-.946-8.107a15.405 15.405 0 0 0-2.18-4.068l4.102-3.333a.881.881 0 0 0 .125-1.243.889.889 0 0 0-1.248-.128l-4.136 3.362a12.787 12.787 0 0 0-10.424-3.797l-.981-5.315A.89.89 0 0 0 19.819.88a.88.88 0 0 0-.71 1.027l.975 5.283c-1.51.353-2.957.932-4.292 1.716-2.342 1.36-4.37 3.29-5.949 5.622l-4.259-2.8A.883.883 0 1 0 4.61 13.2l4.308 2.832a21.096 21.096 0 0 0-2.277 6.259l-4.822-1.588a.885.885 0 0 0-1.127.543c-.16.46.085.965.548 1.125l.027.01 5.113 1.684a18.51 18.51 0 0 0 .744 7.492l-5.644-.113a.88.88 0 1 0-.792 1.31c.154.277.444.451.761.457l6.356.127c1.582 3.514 4.259 6.091 7.642 7.322 3.373 1.228 7.07.979 10.534-.684l4.92 3.86a.888.888 0 0 0 1.237-.153c.3-.38.236-.931-.143-1.235l-4.337-3.402a18.506 18.506 0 0 0 5.4-5.27l4.991 1.993.027.01a.885.885 0 0 0 1.143-.51.885.885 0 0 0-.514-1.141zM26.878 9.254c4.475 1.628 7.32 6.016 7.89 11.11l-21.077-7.672c3.712-3.535 8.711-5.067 13.187-3.438zM9.2 19.665a18.713 18.713 0 0 1 3.184-5.568l10.404 3.786-7.563 20.779C9.082 35.835 6.34 27.522 9.2 19.665zm7.692 19.603l7.563-20.778 10.413 3.79c-.011.8-.068 1.598-.17 2.391a.88.88 0 0 0-.056.375c-.192 1.211-.5 2.4-.921 3.552-2.86 7.857-10.222 12.485-16.829 10.67z" fill="#000"/>
            <path d="M19.207 18.618a2.5 2.5 0 1 0-1.71 4.699 2.5 2.5 0 0 0 1.71-4.699zM13.652 25.11a2.5 2.5 0 1 0-1.71 4.698 2.5 2.5 0 0 0 1.71-4.698zM28.22 24.559a2.5 2.5 0 1 0-4.7-1.71 2.5 2.5 0 0 0 4.7 1.71zM26.808 29.898a2.5 2.5 0 1 0-1.71 4.699 2.5 2.5 0 0 0 1.71-4.7z" fill="#C70D2C"/>
        </g>
        <path d="M12.576 50.484c-4.37 7.504-4.967 11.174-1.793 11.012 4.761-.244 5.773 3.794.62 10.564" stroke="#000"/>
    </g>
</svg>
