<svg width="37" height="45" xmlns="http://www.w3.org/2000/svg">
    <path d="M32.316 14.393l4.424-7.08c.17-.271.25-.584.25-.905V1.684C36.99.741 36.245 0 35.301 0h-4.494c-.943 0-1.739.741-1.739 1.684V4.22c0 .387-.281.712-.668.712h-4.532a.713.713 0 0 1-.704-.712V1.684C23.164.741 22.403 0 21.459 0h-5.484c-.943 0-1.705.741-1.705 1.684V4.22a.712.712 0 0 1-.703.712H9.035c-.387 0-.669-.325-.669-.712V1.684C8.367.741 7.572 0 6.628 0H2.134C1.191 0 .446.741.446 1.684v4.724c0 .32.08.634.25.905l4.423 7.08a1.7 1.7 0 0 1 .259.904v19.307c0 .6-.319 1.155-.833 1.464l-3.278 1.971a1.701 1.701 0 0 0-.821 1.465v4.246c0 .944.744 1.686 1.688 1.686h33.167c.942 0 1.688-.741 1.688-1.686v-4.246a1.7 1.7 0 0 0-.818-1.465l-3.287-1.97a1.708 1.708 0 0 1-.828-1.464V15.297c.001-.319.09-.633.26-.904zm-9.153 10.033c0 .695-.56 1.281-1.255 1.281h-6.381c-.695 0-1.256-.586-1.256-1.281v-5.483a4.368 4.368 0 0 1 4.374-4.369h.145a4.367 4.367 0 0 1 4.373 4.369v5.483z" fill="#0797E1" fill-rule="nonzero"/>
</svg>
