<svg width="59" height="25" xmlns="http://www.w3.org/2000/svg">
    <path d="M12.736 0l6.82 25H14.34l-1.337-5.943H6.351L5.014 25H0L6.82 0h5.916zM30.05 0c1.137 0 2.19.096 3.16.288.97.192 1.815.53 2.54 1.016a5.12 5.12 0 011.705 1.917c.412.793.619 1.79.619 2.99 0 .564-.073 1.126-.218 1.688a5.985 5.985 0 01-.652 1.572c-.29.486-.669.92-1.136 1.303a4.512 4.512 0 01-1.639.844v.153c1.56.333 2.736.973 3.528 1.917.79.946 1.186 2.263 1.186 3.95 0 1.278-.217 2.377-.652 3.298a6.204 6.204 0 01-1.805 2.28c-.769.602-1.666 1.05-2.69 1.343a11.929 11.929 0 01-3.31.441h-8.09V0h7.454zm20.425 0a13.2 13.2 0 013.326.403c1.037.268 1.94.715 2.708 1.342.769.627 1.375 1.457 1.822 2.492.445 1.035.668 2.307.668 3.815 0 1.457-.229 2.722-.685 3.796-.457 1.074-1.075 1.955-1.855 2.646a7.546 7.546 0 01-2.708 1.533 10.548 10.548 0 01-3.276.5h-3.042v8.472H42.52V0h7.956zm-20.19 14.072H27.51v6.557h2.775c2.696 0 4.044-1.138 4.044-3.413 0-1.099-.334-1.898-1.003-2.396-.668-.499-1.683-.748-3.041-.748zM9.727 4.294h-.133l-.406 2.018-.413 2.066a88.054 88.054 0 01-.886 3.968l-.535 2.301H12l-.502-2.3a95.677 95.677 0 01-.757-3.291l-.145-.697c-.29-1.406-.58-2.761-.87-4.065zm40.448.192h-2.74v7.554h2.74c2.675 0 4.011-1.329 4.011-3.988 0-1.303-.34-2.224-1.019-2.76-.68-.538-1.677-.806-2.992-.806zm-20.324-.115h-2.34v5.713h2.307c1.203 0 2.077-.274 2.623-.824.547-.55.82-1.297.82-2.243s-.28-1.623-.836-2.032c-.557-.41-1.416-.614-2.574-.614z" fill="#000" fill-rule="evenodd"/>
</svg>
