<svg width="32" height="46" xmlns="http://www.w3.org/2000/svg">
    <path d="M11 41h10v.033C21 43.776 18.761 46 16 46c-2.698 0-4.896-2.122-4.997-4.777L11 41zm5-41c1.166 0 2.12 1.023 2.194 2.317l.005.163v2.802c5.053 1.134 8.882 6.096 9.01 12.094l.004.311v9.1l4.402 7.293c.463.769.512 1.763.127 2.585-.361.77-1.049 1.27-1.812 1.329l-.154.006H2.224c-.824 0-1.58-.514-1.966-1.335a2.791 2.791 0 01.04-2.428l.087-.157 4.402-7.293v-9.1c0-6.032 3.744-11.078 8.754-12.343l.26-.062V2.48C13.801 1.11 14.786 0 16 0z" fill="#000" fill-rule="nonzero"/>
</svg>
