<svg id="Layer_1" xmlns="http://www.w3.org/2000/svg" viewBox="0 0 48 48">
  <style>
    .st0
    {
      fill: #fff;
    }
  </style>
  <path class="st0" d="M32.6 3.3l12.2 12.1v17.2L32.6 44.7H15.4L3.3 32.6V15.4L15.4 3.3h17.2M33.9 0H14.1L0 14.1V34l14.1 14H34l14-14.1V14.1L33.9 0z"/>
  <path class="st0" d="M12.9 28.5H8.5l-.9 4H4.2l4.6-16.8h4l4.6 16.8h-3.5l-1-4zm-.6-3l-.4-1.5c-.2-.8-.4-1.7-.6-2.7-.2-.9-.4-1.9-.6-2.7h-.1l-.6 2.8-.6 2.7-.4 1.5 3.3-.1zm7.1-9.9h5c.7 0 1.4.1 2.1.2.6.1 1.2.3 1.7.7.5.3.9.8 1.1 1.3.3.6.4 1.3.4 2 0 .4 0 .8-.1 1.2-.1.4-.2.7-.4 1-.2.3-.5.6-.8.9s-.7.5-1.1.6v.1c.9.2 1.7.6 2.4 1.3.6.8.9 1.7.8 2.7 0 .8-.1 1.5-.5 2.2-.3.6-.7 1.1-1.2 1.5s-1.1.7-1.8.9c-.7.2-1.5.3-2.2.3h-5.4V15.6zm4.8 6.8c.6.1 1.3-.1 1.8-.6.4-.4.6-1 .5-1.5 0-.5-.2-1-.5-1.4-.5-.3-1.1-.5-1.7-.4h-1.6v3.8h1.5v.1zm.3 7.1c1.8 0 2.7-.8 2.7-2.3.1-.6-.2-1.2-.7-1.6-.6-.4-1.3-.5-2-.5h-1.9v4.4h1.9zm8.2-13.9H38c.8 0 1.5.1 2.2.3s1.3.5 1.8.9c.5.5 1 1 1.2 1.7.3.8.5 1.7.5 2.6s-.1 1.7-.5 2.5c-.3.7-.7 1.3-1.2 1.8s-1.2.8-1.8 1c-.7.2-1.5.3-2.2.3h-2v5.7h-3.3V15.6zm5.2 8.2c1.3.2 2.5-.7 2.7-2v-.7c.1-.7-.2-1.4-.7-1.9-.6-.4-1.3-.6-2-.5H36v5.1h1.9z" id="ABP"/>
</svg>
