<svg xmlns="http://www.w3.org/2000/svg" viewBox="0 0 2040 500">
    <style>
        .st1{fill:#fff}
    </style>
    <path fill="#c70d2c" d="M462 162.2L337.8 38H162.2L38 162.2v175.6L162.2 462h175.6L462 337.8z"/>
    <path class="st1" d="M337.8 38L462 162.2v175.6L337.8 462H162.2L38 337.8V162.2L162.2 38h175.6m15.7-38H146.4L0 146.4v207.1L146.4 500h207.1L500 353.5V146.4L353.5 0z"/>
    <path class="st1" d="M134.8 293.5H88.3L79 335.1H44L91.6 160h41.3l47.6 175.2h-36.4l-9.3-41.7zm-7-30.9l-3.5-16.1c-2.2-8.8-4.3-18.1-6.3-27.9-2-9.9-4-19.3-6.1-28.5h-.9c-1.9 9.3-3.8 18.9-5.7 28.6-1.9 9.7-4 19-6.2 27.8l-3.7 16.1h32.4zM201.8 160h52.1c7.4-.1 14.8.6 22.1 2 6.3 1.2 12.4 3.6 17.7 7.1 5 3.4 9.1 8 11.9 13.4 2.9 5.6 4.3 12.6 4.3 21 0 4-.5 8-1.5 11.8-1 3.9-2.5 7.6-4.5 11-2.1 3.5-4.8 6.6-7.9 9.1-3.4 2.7-7.3 4.7-11.4 5.9v1.1c10.9 2.3 19.1 6.8 24.6 13.4s8.3 15.8 8.3 27.7c0 9-1.5 16.7-4.5 23.1-2.9 6.3-7.2 11.7-12.6 16-5.6 4.3-12 7.5-18.8 9.4-7.5 2.1-15.3 3.2-23.1 3.1H202V160h-.2zm50.4 70.7c8.4 0 14.5-1.9 18.3-5.8 3.8-3.9 5.7-9.1 5.7-15.7s-1.9-11.4-5.8-14.2-9.9-4.3-18-4.3h-16.3v40h16.1zm3.3 73.8c18.8 0 28.2-8 28.2-23.9 0-7.7-2.3-13.3-7-16.8s-11.7-5.2-21.2-5.2h-19.4v45.9h19.4zM340.9 160h55.6c7.8-.1 15.6.9 23.2 2.8 6.9 1.7 13.4 4.9 18.9 9.4 5.6 4.7 10 10.7 12.7 17.5 3.1 7.2 4.7 16.1 4.7 26.7 0 10.2-1.6 19.1-4.8 26.6-2.9 7.1-7.3 13.4-13 18.5-5.5 4.9-11.9 8.5-18.9 10.8-7.4 2.4-15.1 3.5-22.9 3.5h-21.2v59.4h-34.3V160zm53.5 84.4c18.7 0 28-9.3 28-27.9 0-9.1-2.4-15.6-7.1-19.4-4.7-3.8-11.7-5.6-20.9-5.6h-19.1v52.9h19.1z"/>
    <path d="M349.4 10L490 150.6v198.8L349.4 490H150.6L10 349.4V150.6L150.6 10h198.8m4.2-10H146.4L0 146.4v207.1L146.4 500h207.1L500 353.5V146.4L353.6 0z" fill="#d8d9da"/>
    <g>
        <path d="M760.2 278.3h-69.1l-20.6 59.8h-12.2l61.4-174.4h12.2l61.4 174.4h-12.7l-20.4-59.8zm-3.4-10.3l-11.1-32.5c-3.5-10.4-6.9-20.4-10-29.9-3.2-9.5-6.3-19.7-9.3-30.4h-1.1c-3 10.8-6.1 20.9-9.3 30.4s-6.5 19.5-10 29.9L694.9 268h61.9zM809.2 274.9c-.1-9.5 1.4-18.9 4.5-27.8 2.7-7.8 6.9-14.9 12.3-21.1 5-5.7 11.1-10.2 18-13.4 6.8-3.1 14.1-4.7 21.5-4.6 7-.2 13.9 1.2 20.2 4.1 6.4 3.2 12.5 7 18.1 11.5l-.5-23.3v-52.4H915v190.2h-10l-1.1-16.4h-.8c-5.4 5.3-11.5 9.9-18.2 13.6-7.1 4-15 6.1-23.2 6-16.1 0-28.8-5.7-38.4-17.1s-14.1-27.8-14.1-49.3zm12.4 0c-.1 7.8.8 15.5 2.8 23 1.6 6.3 4.3 12.3 8.1 17.6 7.1 10 18.7 15.8 31 15.5 7.1 0 14.1-1.9 20.2-5.4 7.2-4.2 13.9-9.4 19.7-15.5v-75.4c-6.7-6-13-10.2-18.9-12.7-5.7-2.4-11.9-3.7-18.1-3.7-6.2 0-12.3 1.5-17.7 4.4-5.5 2.9-10.3 7-14.2 11.9-4.2 5.4-7.3 11.5-9.4 18-2.4 7.2-3.5 14.7-3.5 22.3zM963.7 147.9h11.6v55l-.5 24.9c6.4-5.4 13.5-10.1 20.9-14 7.1-3.8 15-5.8 23-5.8 16.9 0 29.6 5.9 38.1 17.6s12.7 27.5 12.7 47.2c.2 9.8-1.4 19.6-4.5 28.8-2.7 7.9-6.9 15.2-12.3 21.6-5 5.7-11.1 10.3-18 13.5-6.7 3.1-13.9 4.6-21.3 4.6-6.6-.1-13.1-1.5-19.2-4.1-6.8-2.8-13.1-6.5-18.9-11h-.5l-1.3 11.9h-9.8V147.9zm11.6 166.7c7.1 6 13.8 10.2 20.4 12.7 6.5 2.5 12.3 3.7 17.2 3.7 6.2 0 12.2-1.4 17.7-4.2 5.5-2.9 10.3-6.9 14-11.9 4.1-5.5 7.2-11.8 9.1-18.4 2.3-7.7 3.4-15.7 3.3-23.7 0-7.3-.7-14.6-2.3-21.7-1.3-6.2-3.6-12-7-17.3-3.1-4.8-7.4-8.7-12.4-11.4-5.1-2.7-11.3-4.1-18.5-4.1-6.4 0-13 1.8-19.8 5.4-7.8 4.3-15.1 9.5-21.7 15.5v75.4zM1107.6 147.9h11.6v174.9c0 2.8.5 4.9 1.6 6.2.9 1.3 2.4 2 4 2h1.7c1-.1 2-.2 3-.5l2.1 9.5c-1.2.4-2.5.7-3.7.9-1.6.3-3.2.4-4.8.4-10.4 0-15.6-6.7-15.6-20.1V147.9h.1zM1159.7 274.9c-.2-9.7 1.4-19.3 4.6-28.4 2.7-7.8 7-14.9 12.4-21 10.2-11.2 24.7-17.5 39.8-17.5 7.5 0 14.9 1.5 21.8 4.5s13.2 7.4 18.3 13c5.5 6.1 9.7 13.3 12.4 21 3.2 9.1 4.8 18.8 4.6 28.4 0 10.6-1.5 20-4.6 28.2-2.8 7.7-7 14.7-12.4 20.8-5.1 5.6-11.3 10-18.3 13-6.9 3-14.3 4.5-21.8 4.5-15.1.1-29.6-6.3-39.8-17.5-5.5-6.1-9.7-13.1-12.4-20.8-3-8.2-4.6-17.6-4.6-28.2zm12.2 0c-.1 7.7 1.1 15.4 3.4 22.8 2 6.4 5.2 12.4 9.4 17.7 3.8 4.8 8.7 8.8 14.2 11.5s11.6 4.2 17.7 4.1c6.2 0 12.3-1.4 17.9-4.1s10.4-6.7 14.3-11.5c4.2-5.3 7.3-11.3 9.4-17.7 2.4-7.3 3.5-15 3.4-22.8.1-7.8-1.1-15.6-3.4-23-2.1-6.5-5.2-12.5-9.4-17.9-3.8-4.9-8.7-8.9-14.3-11.6-5.6-2.7-11.7-4.1-17.9-4.1-6.2 0-12.2 1.4-17.7 4.1-5.5 2.8-10.4 6.7-14.2 11.6-4.1 5.4-7.3 11.4-9.4 17.9-2.3 7.4-3.5 15.2-3.4 23zM1301.3 274.9c-.2-9.7 1.5-19.3 4.8-28.4 2.8-7.8 7.1-14.9 12.7-21 5.2-5.6 11.4-10 18.4-13s14.5-4.5 22.1-4.5c8.8 0 16.2 1.6 22.1 4.8 5.5 2.9 10.7 6.6 15.2 10.9l-6.9 8.2c-4-3.8-8.6-7.1-13.5-9.7-5.2-2.6-10.9-3.9-16.7-3.8-6.3-.1-12.5 1.3-18.1 4.1s-10.6 6.8-14.5 11.6c-4.3 5.3-7.6 11.4-9.8 17.9-2.5 7.4-3.7 15.2-3.6 23-.1 7.7 1 15.4 3.3 22.8 2 6.4 5.1 12.4 9.3 17.7 3.9 4.9 8.9 8.8 14.6 11.5 5.9 2.8 12.4 4.2 18.9 4.1 6.5.1 12.8-1.4 18.7-4.2 5.5-2.7 10.7-6.2 15.2-10.3l6.1 7.9c-5.5 4.9-11.6 9-18.3 12.2-7 3.2-14.6 4.9-22.2 4.8-7.9.1-15.6-1.4-22.9-4.5-6.9-3-13.2-7.4-18.3-13-5.4-6-9.6-13.1-12.2-20.8-3.1-9.3-4.6-18.8-4.4-28.3z"/>
        <g>
            <path d="M1430.2 147.9h11.6v140.2h.5l62.7-77h13.5l-41.3 50.3 48.2 76.7h-13l-42.1-68-28.6 33.3v34.7h-11.6l.1-190.2z"/>
        </g>
        <g>
            <path d="M1562.1 165.6h63c8.9-.1 17.7.9 26.3 2.8 7.7 1.6 15 4.8 21.4 9.3 6.2 4.4 11.1 10.3 14.4 17.2 3.5 7.1 5.3 15.9 5.3 26.3 0 10.1-1.8 18.8-5.4 26.2-3.4 7.1-8.4 13.4-14.7 18.3-6.4 4.9-13.7 8.5-21.5 10.6-8.4 2.3-17.2 3.5-25.9 3.4h-24v58.5h-38.9V165.6zm60.6 83.1c21.2 0 31.8-9.2 31.8-27.5 0-9-2.7-15.3-8.1-19s-13.3-5.5-23.7-5.6H1601v52.1h21.7zM1719.3 152.7h38.9V299c0 4.1.8 6.9 2.3 8.5 1.1 1.4 2.8 2.3 4.6 2.4h2.3c.9 0 1.7-.2 2.5-.5l4.8 28.8c-2.6 1-5.3 1.8-8.1 2.3-3.8.7-7.7 1-11.5.9-6.7 0-12.3-1.1-16.9-3.2-4.4-1.9-8.2-5-11-8.9-2.9-4.1-4.9-8.8-6-13.8-1.3-6-1.9-12-1.8-18.1l-.1-144.7zM1793.7 206.9h38.9v76.5c0 9.5 1.3 16.1 4 19.6s6.8 5.3 12.4 5.3c4.4.2 8.7-1 12.4-3.4 3.3-2.3 7-6 10.8-11.1V207h38.9v131.2h-31.8l-2.9-18.3h-.8c-5.1 6.2-11.2 11.6-18.1 15.7-6.4 3.8-14.2 5.7-23.2 5.7-14.3 0-24.7-4.7-31.1-14s-9.7-22.3-9.7-38.9l.2-81.5zM1951.1 298.7c5.3 4.2 11.1 7.6 17.2 10.3 5.3 2.3 10.9 3.4 16.7 3.4 5.8 0 10.1-1 12.7-2.9s4.1-5 4-8.2c0-2.1-.8-4.1-2.3-5.7-1.8-1.9-3.8-3.4-6.1-4.6-2.8-1.5-5.6-2.8-8.6-3.8-3.2-1.1-6.4-2.4-9.8-3.8-4.2-1.6-8.2-3.5-12.2-5.6s-7.8-4.7-11.1-7.8c-3.4-3.1-6.1-6.8-8.2-10.9-2.2-4.5-3.3-9.4-3.2-14.4-.1-5.8 1.2-11.4 3.6-16.7 2.3-5.1 5.8-9.5 10.2-13 4.8-3.7 10.1-6.5 15.9-8.3 6.7-2.1 13.6-3.1 20.6-3 10.1 0 18.9 1.7 26.5 5.2 7 3.1 13.7 7 19.8 11.5l-17.5 23.3c-4.3-3.3-9-6-14-8.2-4.3-1.9-9-2.9-13.8-2.9-9.9 0-14.8 3.4-14.8 10.3 0 2 .7 4 2.1 5.4 1.7 1.7 3.6 3.1 5.7 4.1 2.7 1.4 5.4 2.5 8.2 3.6l9.7 3.6c4.2 1.6 8.4 3.4 12.6 5.4 4.1 2 7.9 4.5 11.4 7.5 7.6 6.6 11.9 16.4 11.5 26.5.1 5.7-1.1 11.4-3.4 16.7-2.4 5.2-5.9 9.7-10.3 13.3-5 4-10.8 7.1-16.9 9-7.5 2.3-15.4 3.4-23.3 3.3-9.1-.1-18.1-1.8-26.6-5-8.6-3.1-16.6-7.5-23.7-13.2l17.4-24.4z"/>
        </g>
    </g>
</svg>
