<?xml version="1.0" encoding="UTF-8"?>
<svg width="29px" height="25px" viewBox="0 0 29 25" version="1.1" xmlns="http://www.w3.org/2000/svg" xmlns:xlink="http://www.w3.org/1999/xlink">
  <g id="old-Settings" stroke="none" stroke-width="1" fill="none" fill-rule="evenodd">
    <g id="Old-Advanced-tab" transform="translate(-889.000000, -972.000000)" fill="#4A4A4A" fill-rule="nonzero">
      <path d="M917.613159,992.914114 C918.114758,993.74688 918.129532,994.786178 917.651775,995.633002 C917.174947,996.478093 916.281783,997 915.314363,997 L891.685614,997 C890.718161,997 889.824993,996.478115 889.348201,995.633002 C888.870442,994.786261 888.885265,993.74689 889.386868,992.914117 L901.201136,973.300768 C901.687598,972.493076 902.559805,972 903.499962,972 C904.440085,972 905.312287,972.493097 905.798758,973.300718 L917.613159,992.914114 Z M904.030114,974.29924 C903.918773,974.113983 903.717609,974 903.499959,974 C903.282276,974 903.08115,974.113956 902.969802,974.299245 L891.08762,994.069528 C890.974018,994.258556 890.970673,994.493585 891.078807,994.685662 C891.187887,994.87944 891.393756,995 891.617713,995 L915.382259,995 C915.606182,995 915.812089,994.879412 915.921165,994.685662 C916.029323,994.493523 916.025989,994.258527 915.912405,994.069528 L904.030114,974.29924 Z M903.510289,980 C904.317224,980 905,980.385251 905,981.068096 C905,983.151726 904.710339,986.145974 904.710339,988.229603 C904.710339,988.772438 904.006859,989 903.510289,989 C902.848279,989 902.289598,988.772385 902.289598,988.229603 C902.289598,986.145974 902,983.151726 902,981.068096 C902,980.385251 902.66201,980 903.510289,980 Z M903.50981,993 C902.647112,993 902,992.298704 902,991.5 C902,990.681802 902.647053,990 903.50981,990 C904.313707,990 905,990.681802 905,991.5 C905,992.298704 904.313707,993 903.50981,993 Z" id="alert-icon"></path>
    </g>
  </g>
</svg>