<?xml version="1.0" encoding="UTF-8"?>
<svg width="13px" height="16px" viewBox="0 0 13 16" version="1.1" xmlns="http://www.w3.org/2000/svg" xmlns:xlink="http://www.w3.org/1999/xlink">
    <!-- Generator: Sketch 50.2 (55047) - http://www.bohemiancoding.com/sketch -->
    <title>iconAndroid</title>
    <desc>Created with Sketch.</desc>
    <defs></defs>
    <g id="V5" stroke="none" stroke-width="1" fill="none" fill-rule="evenodd">
        <g id="00a" transform="translate(-318.000000, -586.000000)" fill="#585858">
            <g id="Group" transform="translate(25.000000, 23.000000)">
                <g id="Group-6" transform="translate(16.000000, 562.000000)">
                    <g id="Group-9">
                        <g id="iconAndroid" transform="translate(277.000000, 1.000000)">
                            <path d="M2.6,12 C2.6,12.3666667 2.8925,12.6666667 3.25,12.6666667 L3.9,12.6666667 L3.9,15 C3.9,15.5533333 4.3355,16 4.875,16 C5.4145,16 5.85,15.5533333 5.85,15 L5.85,12.6666667 L7.15,12.6666667 L7.15,15 C7.15,15.5533333 7.5855,16 8.125,16 C8.6645,16 9.1,15.5533333 9.1,15 L9.1,12.6666667 L9.75,12.6666667 C10.1075,12.6666667 10.4,12.3666667 10.4,12 L10.4,5.33333333 L2.6,5.33333333 L2.6,12 L2.6,12 Z M0.975,5.33333333 C0.4355,5.33333333 0,5.78 0,6.33333333 L0,11 C0,11.5533333 0.4355,12 0.975,12 C1.5145,12 1.95,11.5533333 1.95,11 L1.95,6.33333333 C1.95,5.78 1.5145,5.33333333 0.975,5.33333333 L0.975,5.33333333 Z M12.025,5.33333333 C11.4855,5.33333333 11.05,5.78 11.05,6.33333333 L11.05,11 C11.05,11.5533333 11.4855,12 12.025,12 C12.5645,12 13,11.5533333 13,11 L13,6.33333333 C13,5.78 12.5645,5.33333333 12.025,5.33333333 L12.025,5.33333333 Z M8.7945,1.44 L9.6395,0.573333333 C9.7695,0.44 9.7695,0.233333333 9.6395,0.1 C9.5095,-0.0333333333 9.308,-0.0333333333 9.178,0.1 L8.216,1.08666667 C7.7025,0.82 7.1175,0.666666667 6.5,0.666666667 C5.876,0.666666667 5.291,0.82 4.771,1.08666667 L3.8025,0.1 C3.6725,-0.0333333333 3.471,-0.0333333333 3.341,0.1 C3.211,0.233333333 3.211,0.44 3.341,0.573333333 L4.1925,1.44666667 C3.2305,2.17333333 2.6,3.34 2.6,4.66666667 L10.4,4.66666667 C10.4,3.34 9.7695,2.16666667 8.7945,1.44 L8.7945,1.44 Z M5.2,3.33333333 L4.55,3.33333333 L4.55,2.66666667 L5.2,2.66666667 L5.2,3.33333333 L5.2,3.33333333 Z M8.45,3.33333333 L7.8,3.33333333 L7.8,2.66666667 L8.45,2.66666667 L8.45,3.33333333 L8.45,3.33333333 Z"></path>
                        </g>
                    </g>
                </g>
            </g>
        </g>
    </g>
</svg>