<?xml version="1.0" encoding="UTF-8"?>
<svg width="13px" height="16px" viewBox="0 0 13 16" version="1.1" xmlns="http://www.w3.org/2000/svg" xmlns:xlink="http://www.w3.org/1999/xlink">
    <!-- Generator: Sketch 50.2 (55047) - http://www.bohemiancoding.com/sketch -->
    <title>iconApple</title>
    <desc>Created with Sketch.</desc>
    <defs></defs>
    <g id="V5" stroke="none" stroke-width="1" fill="none" fill-rule="evenodd">
        <g id="00a" transform="translate(-289.000000, -585.000000)" fill="#585858">
            <g id="Group" transform="translate(25.000000, 23.000000)">
                <g id="Group-6" transform="translate(16.000000, 562.000000)">
                    <g id="Group-9">
                        <g id="iconApple" style="mix-blend-mode: luminosity;" transform="translate(248.000000, 0.000000)">
                            <path d="M11.5414,13.8893333 C10.8996333,14.8475556 10.2362,15.7995556 9.1884,15.8195556 C8.15706667,15.8395556 7.82643333,15.196 6.64993333,15.196 C5.47213333,15.196 5.10336667,15.7995556 4.12966667,15.8395556 C3.11826667,15.8782222 2.3491,14.8048889 1.70213333,13.8511111 C0.380466667,11.9013333 -0.6279,8.33733333 0.728433333,5.93244444 C1.4001,4.73822222 2.6039,3.98222222 3.90823333,3.96266667 C4.90143333,3.944 5.84003333,4.64666667 6.4467,4.64666667 C7.05423333,4.64666667 8.19346667,3.80311111 9.39076667,3.92711111 C9.89213333,3.94844444 11.2987333,4.13333333 12.2022333,5.48311111 C12.1307333,5.53111111 10.5230667,6.48622222 10.5425667,8.476 C10.5620667,10.8528889 12.5822667,11.6431111 12.6061,11.6537778 C12.5879,11.7097778 12.2832667,12.7817778 11.5409667,13.8893333 L11.5414,13.8893333 Z M7.14176667,1.31555556 C7.69643333,0.652 8.6333,0.158222222 9.4068,0.125333333 C9.5056,1.04711111 9.14246667,1.97022222 8.606,2.63511111 C8.06866667,3.29911111 7.18856667,3.81644444 6.32536667,3.74711111 C6.20793333,2.84533333 6.64343333,1.90488889 7.14176667,1.31555556 Z"></path>
                        </g>
                    </g>
                </g>
            </g>
        </g>
    </g>
</svg>