<?xml version="1.0" encoding="UTF-8"?>
<svg width="14px" height="17px" viewBox="0 0 14 17" version="1.1" xmlns="http://www.w3.org/2000/svg" xmlns:xlink="http://www.w3.org/1999/xlink">
  <g id="old-Settings" stroke="none" stroke-width="1" fill="none" fill-rule="evenodd">
    <g id="Old-Advanced-tab" transform="translate(-396.000000, -1323.000000)" fill="#0797E1" fill-rule="nonzero">
      <g id="Copy-btn" transform="translate(380.000000, 1314.000000)">
        <g id="copy-content" transform="translate(16.000000, 9.000000)">
          <path d="M11.0035088,0 L1.57192982,0 C0.707368421,0 0,0.736363636 0,1.63636364 L0,13.0909091 L0.975671029,13.0909091 L0.975671029,1.01554355 L11.0035088,1.01554355 L11.0035088,0 Z M12.4280702,2.27272727 L3.78245614,2.27272727 C2.91789474,2.27272727 2.21052632,3.00909091 2.21052632,3.90909091 L2.21052632,15.3636364 C2.21052632,16.2636364 2.91789474,17 3.78245614,17 L12.4280702,17 C13.2926316,17 14,16.2636364 14,15.3636364 L14,3.90909091 C14,3.00909091 13.2926316,2.27272727 12.4280702,2.27272727 Z M12.148538,16.3181818 L4.0619883,16.3181818 C3.50970355,16.3181818 3.0619883,15.8704666 3.0619883,15.3181818 L3.0619883,3.95454545 C3.0619883,3.4022607 3.50970355,2.95454545 4.0619883,2.95454545 L12.148538,2.95454545 C12.7008228,2.95454545 13.148538,3.4022607 13.148538,3.95454545 L13.148538,15.3181818 C13.148538,15.8704666 12.7008228,16.3181818 12.148538,16.3181818 Z" id="Shape"></path>
        </g>
      </g>
    </g>
  </g>
</svg>
