<svg width="37" height="31" xmlns="http://www.w3.org/2000/svg">
    <g fill="none">
        <path d="M34.088 18.04c-.724 0-.955.213-.97.928l-.001 10.383c0 .708.181.962.776 1.003l.195.006h1.461c.724 0 .955-.213.97-.928l.001-10.382c0-.753-.205-.993-.892-1.01h-1.54z" fill="#C2E5F8"/>
        <path d="M15.698 19.448l-.25-.008-3.036-.127c-1.463-.06-2.62.799-2.719 1.866l-.006.095c-.044 1.076 1 2.053 2.442 2.16l.111.007 2.456.101.4.02c3.352.194 5.27.982 5.683 1.17l.086.04-.52 1.043-.122-.055-.277-.11c-.712-.266-2.37-.777-4.913-.924l-.385-.02-2.65-.11c-1.972-.081-3.422-1.418-3.471-3.157l-.002-.106-6.18-1.487c-1.036-.22-1.832.337-2.164 1.125l-.053.135c-.302.803-.087 1.713.831 2.177l12 5.777.388.172c2.634 1.152 3.73 1.286 6.564.809l.417-.073 10.666-1.897c.195-.035.356-.156.38-.395l.002-.062v-6.832a.622.622 0 00-.343-.571l-.365-.185-.359-.175c-1.47-.7-3.998-1.726-6.345-1.824-2.82-.117-4.253 1.52-8.266 1.421z" fill="#0797E1"/>
        <path d="M15.4 0a8.36 8.36 0 110 16.721A8.36 8.36 0 0115.4 0zm.402 3.52h-.803c-.081 0-.13.033-.147.097l-.006.054v.88c-1.338.257-1.956 1.25-1.956 2.184 0 1.08.697 1.86 2.073 2.32l.201.064c1.127.337 1.127.708 1.127.866 0 .574-.646.66-1.031.66-.675 0-1.375-.27-1.666-.397-.062-.027-.13-.022-.178.026l-.032.045-.603 1.142c-.047.089-.009.165.068.2l.178.077.267.104c.35.13.828.275 1.349.346l.203.024v.837c0 .08.033.129.098.145L15 13.2h.803c.082 0 .131-.033.148-.097l.006-.054v-.88c1.337-.257 1.955-1.251 1.955-2.184 0-1.08-.697-1.86-2.073-2.321l-.201-.064c-1.127-.336-1.127-.706-1.127-.865 0-.574.646-.66 1.032-.66.674 0 1.375.27 1.667.398.062.027.13.022.178-.026l.032-.045.6-1.143c.048-.089.01-.165-.067-.2l-.177-.077-.268-.104a6.53 6.53 0 00-1.348-.346l-.203-.024v-.837c0-.08-.033-.129-.099-.145l-.055-.006z" fill="#FFBA40"/>
    </g>
</svg>
