<svg width="17" height="13" xmlns="http://www.w3.org/2000/svg">
  <path d="M17 4.192v7.33c0 .407-.148.755-.446 1.044-.297.29-.654.434-1.072.434H1.518c-.418 0-.775-.145-1.072-.434A1.403 1.403 0 010 11.523V4.192c.278.301.598.57.958.803C3.248 6.509 4.82 7.571 5.673 8.18c.36.259.653.46.878.605.224.145.523.292.896.443.373.151.72.226 1.043.226h.02c.322 0 .67-.075 1.043-.226.373-.15.672-.298.897-.443.224-.144.517-.346.877-.605 1.075-.757 2.65-1.819 4.724-3.185.36-.24.677-.508.949-.803zM15.482 0c.411 0 .767.145 1.067.434.3.29.451.637.451 1.043 0 .487-.155.951-.465 1.394-.31.444-.696.822-1.157 1.136a8399.402 8399.402 0 00-4.44 3 40.79 40.79 0 00-.403.282c-.206.145-.376.262-.512.351-.136.09-.3.19-.494.3-.192.11-.374.194-.545.25-.17.055-.329.082-.474.082h-.02a1.54 1.54 0 01-.474-.083 2.899 2.899 0 01-.545-.249 9.887 9.887 0 01-.494-.3c-.136-.089-.306-.206-.512-.35-.206-.145-.34-.24-.403-.282-.576-.394-1.404-.956-2.486-1.685-1.081-.73-1.73-1.168-1.944-1.316a4.651 4.651 0 01-1.11-1.066C.174 2.488 0 2.068 0 1.68 0 1.2.131.8.394.48.656.16 1.03 0 1.518 0h13.964z" fill="#FFF" fill-rule="nonzero"/>
</svg>
