<?xml version="1.0" encoding="UTF-8"?>
<svg xmlns="http://www.w3.org/2000/svg" width="29" height="25" viewBox="0 0 29 25">
  <path d="M2.177 22.689c-.095-.145-.142-.343-.105-.44.1-.26 11.826-19.76 12.017-19.985.105-.122.275-.179.478-.158.298.03.655.596 6.331 10.042 3.309 5.506 6.018 10.114 6.02 10.241a.633.633 0 0 1-.163.397c-.15.15-1.41.167-12.286.167H2.35zm12.984-1.828c.589-.296.877-.816.824-1.484-.124-1.542-2.166-1.937-2.86-.553-.248.492-.232.918.054 1.417.42.734 1.242.991 1.982.62zm.185-4.05c.187-.114.363-.316.39-.45.027-.132.077-1.027.11-1.989l.129-3.659c.074-2.112.044-2.26-.524-2.554-.445-.231-1.403-.23-1.85.001-.73.38-.72.286-.517 4.394.1 2.02.203 3.778.23 3.908.115.537 1.37.753 2.032.35z" fill="#c80000" fill-rule="nonzero"/>
</svg>