<svg width="80" height="84" fill="none" xmlns="http://www.w3.org/2000/svg">
    <path d="M77.6 40.406c.14-.468.468-.608.117-1.036-.358-.428-1.277-1.737-1.277-1.737a4.39 4.39 0 00-.249-.467c-.312-.428-1.503-.055-1.674.226-.172.28.397 2.811.397 3.014 0 0 .584.483.67.483.085 0 1.292-.14 1.464-.14.171 0 .428.124.568-.343h-.015zM74.454 50.266a11.173 11.173 0 01-1.745-.888l-.078-.047c-.249-.155-.483-.319-.755-.521a9.243 9.243 0 01-1.207-1.114l-.203-.226-.054-.062a6.769 6.769 0 01-.304-.397l-.234-.335c-.093-.148-.179-.304-.272-.468l-.063-.116-.093-.172a6.99 6.99 0 01-.296-.7l-.039-.086a.752.752 0 00-.77-.507c-1.153.11-2.345-.054-3.544-.467-.203-.07-.405-.14-.608-.226a10.075 10.075 0 01-1.06-.53c-.124-.07-.24-.14-.365-.21-.218-.14-.428-.288-.631-.436l-.374-.288a11.7 11.7 0 01-.786-.693 7.781 7.781 0 01-.616-.716c-.015-.024-.039-.047-.062-.07-.031-.047-.07-.102-.101-.156l-.21-.32a3.752 3.752 0 01-.195-.288c-.055-.085-.094-.179-.14-.272l-.172-.327c-.046-.086-.093-.172-.132-.265-.047-.102-.086-.21-.125-.32l-.132-.358c-.031-.085-.062-.163-.093-.249-.04-.125-.07-.25-.102-.374l-.07-.288a8.605 8.605 0 01-.148-.755l-.015-.117-.024-.14c0-.047-.015-.086-.023-.14a8.951 8.951 0 01-.047-.678v-.187a1.43 1.43 0 01-.023-.257c0-.101 0-.203.015-.304l.016-.381c0-.11 0-.218.016-.328a.74.74 0 00-.655-.81c-2.609-.295-4.665-1.316-6.113-3.037a8.432 8.432 0 01-.608-.81c-.03-.046-.062-.101-.093-.148l-.164-.272c-.086-.14-.179-.288-.249-.429-.031-.07-.062-.132-.093-.202l-.14-.312a3.189 3.189 0 01-.164-.373c-.031-.078-.055-.156-.078-.234l-.11-.327a18.824 18.824 0 01-.116-.359 1.241 1.241 0 01-.047-.233l-.07-.335a3.045 3.045 0 01-.07-.366c-.015-.086-.015-.171-.023-.257l-.031-.327a5.863 5.863 0 01-.032-.366v-.569c0-.132 0-.257.016-.39 0-.085.016-.17.031-.256l.04-.335c.015-.14.03-.273.054-.413a.743.743 0 00-.42-.81 11.517 11.517 0 01-1.138-.6 11.422 11.422 0 01-.748-.506l-.132-.093c-.047-.031-.086-.055-.125-.086-.233-.179-.475-.39-.763-.654l-.148-.132a8.43 8.43 0 01-.677-.748l-.164-.195c-.086-.101-.179-.202-.257-.311a9.102 9.102 0 01-.973-1.768.06.06 0 00-.016-.031 8.537 8.537 0 01-.506-1.924c0-.047-.016-.086-.024-.14a5.373 5.373 0 01-.03-.608v-.288c0-.101.007-.202.015-.296.023-.319.062-.63.109-.95 0-.031 0-.062.008-.093.015-.125.039-.25.062-.382l.132-.709c.07-.366.14-.724.195-1.082 0-.04.008-.078.008-.11.078-.529.163-1.199.132-1.876a.741.741 0 00-.646-.701c-5.452-.701-9.517-.21-9.673-.187l-2.578.288c-5.163.639-10.007 3.092-10.568 3.38-.724.265-2.812 1.067-3.598 1.885-1.27.63-4.143 2.835-4.79 3.816-.483.724-.327 1.667-.101 2.368-.101-.008-.195-.024-.265-.031-.397-.047-.849-.102-1.277 0-.896.202-2.095 1.238-2.329 1.448-2.687 2.407-4.01 5.498-5.07 7.975l-.272.639C2.126 32.4.685 37.135.335 38.857c-.358 1.76-.382 5.218-.288 6.269.03.42.015 1.036 0 1.745-.031.895-.063 1.915 0 2.928.117 1.892 1.573 5.381 1.627 5.522.156.381.694 1.674 1.06 2.118.187.226.46.81.56 1.051.203.545.717 2.11.764 3.06.054 1.317.996 2.89 1.261 3.303.218.608.927 1.885 1.573 2.492h-.007s.506.764 1.495 1.721c.748.725 1.238 1.465 1.994 2.594l.412.615c1.262 1.877 3.225 3.076 4.284 3.621.63.328 1.207.772 1.869 1.285.732.57 1.565 1.216 2.703 1.877 2.204 1.293 5.412 2.04 5.615 2.088.77.109 1.744-.016 2.53-.11.266-.03.523-.062.686-.077.11.124.273.436.366.708.016.04.024.07.047.11.568 1.121 2.671 1.339 6.113 1.339.07 0 6.986 0 8.528-.584.631-.242.95-.273 1.52-.335.357-.039.794-.086 1.417-.195 2.04-.35 2.702-2.063 2.725-2.134.078-.194.172-.514.265-.81.374.218.841.546 1.098.717.717.49.888.607 1.207.576.055 0 .18-.015 2.134-.35l.078-.016c1.534-.257 3.42-1.892 5.062-3.403.304-.28.538-.499.678-.608.273-.21.662-.436 1.075-.67.56-.319 1.2-.685 1.806-1.152.99-.771 2.804-3.037 3.225-3.575 1.168-.833 2.313-2.578 2.367-2.656.016-.03.04-.062.055-.093.646-1.378 1.386-2.297 2.095-3.185.56-.693 1.137-1.418 1.659-2.329.981-1.737 1.332-3.138 1.425-3.66.304-.764.53-1.792.615-2.22.397-.833.56-2.313.787-4.322l.124-1.075a.74.74 0 00-.46-.77h-.03zm-1.13 1.675c-.202 1.79-.373 3.333-.677 3.893a.818.818 0 00-.078.219c-.047.225-.273 1.37-.576 2.095a.705.705 0 00-.047.17c0 .017-.226 1.41-1.27 3.256-.459.81-.973 1.449-1.518 2.134-.763.943-1.55 1.924-2.267 3.442-.334.499-1.261 1.753-2.024 2.267-.063.047-.125.093-.172.156-.584.74-2.258 2.803-3.045 3.41-.522.406-1.082.725-1.627 1.037-.46.257-.888.506-1.247.778-.163.125-.436.374-.778.694-.997.918-3.077 2.827-4.276 3.03a.276.276 0 00-.078.015c-.997.171-1.589.264-1.87.311-.116-.07-.264-.179-.435-.296-1.449-.981-2.095-1.363-2.664-1.137a.85.85 0 00-.514.6c-.093.413-.342 1.176-.397 1.34-.031.07-.436.989-1.589 1.191-.584.101-.989.148-1.331.187-.623.07-1.067.117-1.877.42-.857.32-5.203.491-8.014.491-3.684 0-4.595-.335-4.79-.522-.171-.483-.677-1.635-1.635-1.635-.242 0-.561.039-.966.093-.662.086-1.566.195-2.08.125-.03 0-3.13-.732-5.132-1.908-1.051-.615-1.846-1.23-2.547-1.776-.693-.537-1.34-1.036-2.095-1.425-1.588-.826-2.943-1.97-3.738-3.139l-.405-.607c-.77-1.16-1.332-2.002-2.188-2.835-.802-.779-1.223-1.363-1.293-1.48l-.07-.093c-.288-.312-1.098-1.3-1.34-2.11a.751.751 0 00-.093-.195c-.288-.437-1.036-1.76-1.075-2.64-.062-1.387-.825-3.443-.857-3.529h-.007c-.156-.467-.616-1.246-.802-1.472-.148-.179-.546-1.035-.826-1.729-.397-.942-1.433-3.691-1.519-5.054-.062-.942-.03-1.924 0-2.788.024-.755.047-1.41 0-1.916-.078-.927-.054-4.276.273-5.872.343-1.667 1.737-6.246 2.827-8.746l.273-.639c1.059-2.468 2.258-5.272 4.696-7.453.444-.397 1.285-1.02 1.674-1.106.18-.039.483 0 .779.031.615.078 1.379.164 1.955-.342a.737.737 0 00.163-.904c-.311-.592-.53-1.456-.342-1.736.482-.733 3.302-2.92 4.306-3.35a.713.713 0 00.304-.24c.257-.359 1.807-1.091 3.092-1.55.031-.008.062-.024.093-.04.047-.023 5.008-2.616 10.094-3.247l2.585-.288c.04 0 3.723-.452 8.653.109-.023.39-.078.763-.125 1.075 0 .038-.008.07-.008.1-.054.312-.108.624-.17.943l-.133.74c-.031.164-.055.327-.086.49 0 .032-.008.063-.008.094a13.76 13.76 0 00-.109.974c0 .117-.015.233-.015.342v.343c0 .265.008.522.047.787 0 .046.015.1.03.163.11.795.32 1.566.608 2.298a.06.06 0 00.016.03c.054.133.124.265.187.398a.32.32 0 00-.086.008c-.841.132-1.449.444-1.877.794-.95.787-1.044 1.83-1.044 1.83.997.678 3.357.631 5.078.327.047.047.086.094.133.14.039.04.085.078.17.156.32.296.593.538.873.748.063.047.133.093.203.14l.093.063a10.82 10.82 0 001.628 1.012l-.031.241c-.016.117-.031.234-.04.35-.015.164-.015.336-.015.5v.264a2.745 2.745 0 000 .358c0 .156.024.312.04.468l.03.288a5.109 5.109 0 00.132.833l.063.288c.023.117.047.226.07.335.039.156.093.304.148.46l.093.28a5.6 5.6 0 00.11.335c.062.156.132.311.21.467l.124.265c.047.101.086.202.14.296.094.179.203.35.304.522l.133.226c.047.077.093.163.148.241.218.32.451.639.708.942 1.566 1.862 3.715 3.03 6.394 3.466v.047c-.007.132-.023.264-.023.397 0 .117 0 .234.016.35v.187c.023.25.038.507.062.748.008.07.016.148.031.218l.039.25c.047.287.101.583.171.871l.07.289c.04.155.078.319.125.475.039.117.086.233.132.35l.117.304c.047.14.102.28.164.42.054.125.117.25.187.366l.14.28c.062.126.124.258.195.375.078.132.17.265.257.39l.179.264c.062.101.132.202.202.296l.055.062c.008.016.023.024.03.04.242.303.46.552.678.778.312.311.64.592.904.802.086.07.171.14.257.203l.171.124c.242.18.483.35.732.506.14.086.28.164.436.257.234.133.468.257.71.374.163.078.326.156.49.226.233.093.467.18.7.265 1.208.413 2.423.6 3.607.568.062.148.124.296.194.437.024.046.047.093.11.202l.085.148c.101.187.203.374.327.56l.273.39c.116.164.233.327.366.475l.062.07c.078.094.163.187.265.296.436.483.903.911 1.363 1.254l.062.047c.265.194.537.39.818.56l.156.094c.443.273.91.514 1.386.732l-.063.53v.008z" fill="#2D2321"/>
    <path d="M49.062 15.102s-.226.67-.226.872c0 .203.327 1.278.397 1.55.07.273.452 1.137.569 1.433.117.296.412.92.451.904a56.348 56.348 0 001.208-.623l.186-.273c-.856-2.072-.77-4.673-.77-4.673s-1.309-.241-1.823.802l.008.008zM50.357 1.746c.07-.03.296-.428.53-1.106.225-.685-.71-.397-.966-.257-.257.14-.312 1.363-.312 1.363s.686.031.756 0h-.008zM54.523 19.738s.273-1.168.226-1.363c-.04-.203-.226-1.277-.226-1.277s-.755.311-1.036.412c0 0 .055.74 0 1.02-.054.281.242 1.309.226 1.566-.016.257.81-.358.81-.358zM71.32 36.03l.397-.553s-.398-1.355-.538-1.784c-.14-.428-.428-1.308-.452-1.48-.03-.17-.825-1.62-.825-1.62s-1.277 1.083-1.394 1.255c0 0 1.223 2.305 1.604 2.67.382.367 1.207 1.504 1.207 1.504v.008zM78.777 47.867s-1.09.85-1.3 1.215c-.21.366-.748.662-.81.724-.063.063.981.725 1.09.725.11 0 1.558-.514 1.597-.577.039-.062.53-.849.638-1.09.11-.234-1.02-.748-1.215-1.005v.008zM47.52 7.362s1.02-.023 1.238-.085c.21-.063 1.191-.382 1.254-.81.062-.429.039-.958.039-.958l-1.363-.81-2.43.81c.233.148 1.13.981 1.13.981l.124.872h.008zM63.94 32.236v-.639h-1.745v.499l.405.498 1.34-.366v.008zM74.998 49.199c.18-.078.584-.094.53-.18-.055-.085-.88-.256-1.06-.256 0 0 .343.514.53.436zM56.208 45.002c-.981-1.184-3.162-2.282-5.677-.919-.935.507-1.488 1.176-1.807 1.877-.81 1.776-.093 3.746-.055 3.816.055.094.35.491.764.732.42.234 2.733.841 5.109-.257 2.375-1.098 2.204-4.174 2.204-4.174-.047-.311-.234-.693-.546-1.067l.008-.008zM56.493 63.88c-1.324-1.09-3.722-.888-5.498 1.386a1.71 1.71 0 00-.109.14c-1.908 2.57.101 4.136.436 4.23.335.093 1.9.108 3.73-1.862 1.823-1.963 1.706-3.653 1.706-3.653a3.85 3.85 0 00-.257-.249l-.008.008zM26.48 69.713c-.094.008-.18.016-.274.031-2.998.468-2.967 1.66-2.803 1.932.156.272 1.628 1.729 3.878 1.347 2.251-.382 3.42-1.261 3.42-1.261-.016-.07-.047-.156-.079-.242-.334-.849-1.596-2.103-4.143-1.807zM39.893 61.247c-.545-1.005-1.947-2.632-4.704-2.25-.935.132-1.651.459-2.197.895-1.588 1.277-1.705 3.528-1.246 4.72 0 0 2.119 1.495 4.961.84 2.843-.654 3.52-3.099 3.466-3.52-.016-.1-.101-.366-.28-.685zM26.742 26.147c.63-3.255 0-4.034 0-4.034-.032-.016-.07-.031-.11-.055-1.308-.662-4.057-.366-5.147 3.092-.055.18-.094.343-.133.514-.685 3.17 2.04 4.424 2.298 4.377.265-.047 2.453-.63 3.092-3.894zM13.562 36.372c-.499.063-1.34.35-1.978 1.488-.187.335-.296.67-.343.989-.195 1.316.615 2.36.833 2.344.273-.016 2.01-3.357 1.916-4.836 0 0-.171-.024-.428 0v.015zM34.66 43.108c2.608.436 4.384-1.145 4.602-3.38 0-.031.008-.054.008-.086.179-2.282-1.496-3.683-1.496-3.683-.444-.468-1.806-1.184-3.668-1.184-1.285 0-2.266.841-2.85 1.94a4.87 4.87 0 00-.522 1.596c-.273 1.768 1.277 4.361 3.925 4.797zM20.188 49.408c-1.394-.303-2.882.218-3.84 1.379-.615.74-1.004 1.744-1.012 2.975-.016 3.146 2.866 4.33 3.45 4.353.584.016 2.882-1.386 2.92-4.416.024-2.25-.817-3.52-1.261-4.026-.156-.18-.257-.265-.257-.265zM65.099 58.108c4.236-2.89 2.064-7.85 2.064-7.85-1.862.32-3.412 5.21-2.064 7.85z" fill="#2D2321"/>
</svg>
