<svg width="80" height="71" fill="none" xmlns="http://www.w3.org/2000/svg">
    <g clip-path="url(#clip0_3967_24747)">
        <path d="M.5 57.519h78.996V2.828H.5v54.691z" fill="#fff"/>
        <path d="M79.498 58.027H.502A.502.502 0 010 57.525V2.834c0-.277.225-.502.502-.502h78.996c.277 0 .502.225.502.502v54.691a.502.502 0 01-.502.502zM1.004 57.023h77.992V3.336H1.004v53.687z" fill="#000"/>
        <path d="M.5 7.722h78.996V.503H.5v7.219z" fill="#fff"/>
        <path d="M79.498 8.224H.502A.502.502 0 010 7.722V.503C0 .226.225.001.502.001h78.996c.277 0 .502.225.502.502v7.219a.502.502 0 01-.502.502zM1.004 7.22h77.992V1.005H1.004V7.22z" fill="#000"/>
        <path d="M57.633 4.611h-4.166a.502.502 0 010-1.004h4.166a.502.502 0 010 1.004zm8.453 0H61.92a.502.502 0 010-1.004h4.166a.502.502 0 010 1.004zm8.454 0h-4.167a.502.502 0 010-1.004h4.166a.502.502 0 010 1.004z" fill="#000"/>
        <path d="M42.498 51.685l5.77-1.621-2.325-7.675-5.037 1.622-3.313-4.882 2.782-4.813-6.994-3.133-2.204 5.43-5.909.075-2.36-4.732-7.155 3.976 2.983 4.276-3.953 4.634-3.889-1.305-2.054 8.437 4.593.934 1.99 5.442-3.479 3.67 5.892 5.21 2.81-3.86 5.418 1.125.554 5.182 7.213-.456-.692-4.714 4.195-2.712 3.975 3.647 5.413-6.63-4.795-2.793.577-4.345-.006.011zm-13.947 3.86a5.103 5.103 0 01-5.1-5.1 5.103 5.103 0 015.1-5.102 5.103 5.103 0 015.101 5.101 5.103 5.103 0 01-5.1 5.101z" fill="#fff"/>
        <path d="M26.619 70.202a.496.496 0 01-.497-.45l-.513-4.818-4.743-.987-2.62 3.595a.484.484 0 01-.352.202.498.498 0 01-.387-.12l-5.891-5.212a.498.498 0 01-.029-.72l3.266-3.446-1.789-4.887-4.322-.883a.516.516 0 01-.323-.225.482.482 0 01-.063-.387l2.054-8.436a.494.494 0 01.646-.358l3.572 1.195 3.48-4.08-2.764-3.958a.487.487 0 01-.075-.398.487.487 0 01.248-.324l7.155-3.975a.49.49 0 01.392-.04c.133.04.242.132.3.253l2.216 4.449 5.257-.07L32.92 31a.503.503 0 01.67-.271l6.993 3.133c.127.058.23.167.271.306a.495.495 0 01-.04.404l-2.626 4.54 2.926 4.311 4.68-1.506a.502.502 0 01.634.335l2.326 7.674a.501.501 0 01-.346.63l-5.448 1.529-.484 3.687 4.506 2.625a.518.518 0 01.243.346.501.501 0 01-.104.41l-5.413 6.63a.495.495 0 01-.727.052l-3.687-3.381-3.6 2.325.645 4.397a.47.47 0 01-.11.387.487.487 0 01-.357.184l-7.213.456h-.04zm-5.967-7.31c.035 0 .07 0 .104.01l5.418 1.126c.214.046.375.22.399.439l.502 4.703 6.185-.387-.611-4.178a.502.502 0 01.225-.496l4.195-2.712a.504.504 0 01.611.052l3.584 3.283 4.703-5.764-4.288-2.499a.504.504 0 01-.242-.502l.577-4.345a.501.501 0 01.363-.416l5.275-1.483-2.032-6.693-4.552 1.465a.503.503 0 01-.572-.196l-3.312-4.881a.492.492 0 01-.017-.531l2.504-4.328-6.013-2.695-2.013 4.951a.502.502 0 01-.456.312l-5.909.075h-.006a.51.51 0 01-.45-.277l-2.123-4.264-6.215 3.45 2.666 3.82a.495.495 0 01-.029.612l-3.953 4.633a.506.506 0 01-.542.15l-3.37-1.13-1.8 7.397 4.085.831a.493.493 0 01.37.317l1.99 5.442a.506.506 0 01-.11.52l-3.121 3.294 5.09 4.5 2.486-3.41a.503.503 0 01.404-.207v.011zm7.9-6.839a5.615 5.615 0 01-5.609-5.608 5.615 5.615 0 015.609-5.609 5.615 5.615 0 015.608 5.609 5.615 5.615 0 01-5.608 5.608zm0-10.207a4.605 4.605 0 000 9.21 4.614 4.614 0 004.605-4.605 4.61 4.61 0 00-4.605-4.605z" fill="#000"/>
        <path d="M18.79 65.061c-.196-.658-.928-.917-1.407-1.339-.156-.138-.987-.715-1.847-1.488-.548-.456-.97-1.125-1.61-1.449-1.13-.519-2.14.999-1.258 1.864 1.558 1.587 2.712 2.424 4.045 3.405.317.167.15.346.975.456.733.017 1.304-.745 1.103-1.449zm14.125 2.447c-.162-.075-.572-.012-.693.017-.715.046-1.437.04-2.146-.029-.699-.069-1.402-.086-2.1-.144-.358-.017-.745-.144-1.08.04-1.2.456-.813 2.303.462 2.291 1.137.133 2.285.058 3.427.046a14.99 14.99 0 001.628-.023c.265 0 .542-.011.773-.161.842-.48.675-1.8-.266-2.043l-.005.006zm11.141-9.181c-1.004 1.622-2.683 3.601-3.099 4.317-.254.375-.727.582-.883 1.015-.479 1.033.918 1.962 1.708 1.154.82-.675 1.576-1.996 1.766-2.158a33.047 33.047 0 001.835-2.452c.22-.393.623-.727.67-1.189.196-1.143-1.42-1.69-1.991-.687h-.006z" fill="#000" opacity=".13"/>
        <path d="M31.305 18.524H11.432a.502.502 0 010-1.005h19.873a.502.502 0 010 1.005zm41.73 24.766h-15.06a.502.502 0 010-1.004h15.06a.502.502 0 010 1.004zm-48.85-17.207H11.467a.502.502 0 010-1.004h12.718a.502.502 0 010 1.004z" fill="#000"/>
        <path d="M71.723 15.454H48.965v17.068h22.758V15.454z" fill="#fff"/>
        <path d="M71.721 33.024H48.963a.502.502 0 01-.502-.502V15.454c0-.277.225-.502.502-.502h22.758c.277 0 .502.225.502.502v17.068a.502.502 0 01-.502.502zM49.465 32.02h21.754V15.956H49.465V32.02zM10.914 50.439a.168.168 0 01-.144-.254l2.227-3.647a.168.168 0 01.23-.057c.082.046.105.15.059.23l-2.228 3.647a.164.164 0 01-.144.081zm2.646.415a.174.174 0 01-.093-.028.161.161 0 01-.04-.231 300.325 300.325 0 019.423-12.966.167.167 0 01.236-.029.167.167 0 01.03.237 299.543 299.543 0 00-9.412 12.948.178.178 0 01-.139.075l-.005-.006zm5.759-12.867a.186.186 0 01-.104-.035.173.173 0 01-.035-.236l2.487-3.272a.173.173 0 01.237-.035.173.173 0 01.035.237l-2.488 3.272a.172.172 0 01-.132.063v.006zm-3.714 15.874a.145.145 0 01-.092-.029.174.174 0 01-.052-.23A270.05 270.05 0 0125.97 38.46a.173.173 0 01.237-.035.173.173 0 01.034.237A274.585 274.585 0 0015.744 53.78a.163.163 0 01-.139.075v.006zm1.424 3.046a.166.166 0 01-.133-.271 101.282 101.282 0 004.466-6.134.167.167 0 01.23-.046.167.167 0 01.047.231 100.78 100.78 0 01-4.483 6.151.173.173 0 01-.133.064l.006.005zm8.631-12.284a.195.195 0 01-.098-.029.173.173 0 01-.04-.237c1.431-1.99 2.92-3.975 4.426-5.914a.167.167 0 01.236-.03.167.167 0 01.03.238 199.088 199.088 0 00-4.42 5.903.172.172 0 01-.14.069h.006zm4.362-1.028a.15.15 0 01-.087-.023.163.163 0 01-.052-.23 184.51 184.51 0 016.088-9.037.172.172 0 01.237-.04.172.172 0 01.04.236 182.47 182.47 0 00-6.076 9.02.171.171 0 01-.145.08l-.005-.006zM15.685 63.313a.187.187 0 01-.104-.035.167.167 0 01-.029-.237 170.713 170.713 0 017.15-8.655.171.171 0 01.236-.018c.07.064.075.168.018.237a170.172 170.172 0 00-7.138 8.638.173.173 0 01-.133.064v.005zm5.089-1.656a.195.195 0 01-.098-.03.166.166 0 01-.04-.23 115.666 115.666 0 013.38-4.495.167.167 0 01.237-.03.167.167 0 01.03.237 104.481 104.481 0 00-3.37 4.484.172.172 0 01-.14.07v-.006zm12.053-16.78a.157.157 0 01-.098-.035.168.168 0 01-.035-.237 41.314 41.314 0 013.774-4.385.17.17 0 01.237 0 .17.17 0 010 .237 40.568 40.568 0 00-3.74 4.345.162.162 0 01-.132.069l-.006.006zM23.81 62.412a.174.174 0 01-.093-.028.161.161 0 01-.04-.231 70.593 70.593 0 013.035-4.114.167.167 0 01.237-.03.167.167 0 01.028.237 77.206 77.206 0 00-3.023 4.097.179.179 0 01-.139.075l-.005-.006zm10.789-14.246a.186.186 0 01-.104-.035.167.167 0 01-.029-.237 124.447 124.447 0 013.791-4.69.166.166 0 01.237-.018c.07.057.08.167.017.236a124.027 124.027 0 00-3.785 4.68.172.172 0 01-.133.064h.006zm-7.457 15.181a.167.167 0 01-.133-.271c4.859-6.163 10-12.228 15.274-18.038a.166.166 0 01.237-.012c.07.064.075.167.011.237a336.476 336.476 0 00-15.262 18.02.173.173 0 01-.133.064h.006zm1.023 3.624a.162.162 0 01-.11-.04.166.166 0 01-.017-.237l11.35-13.456a.166.166 0 01.237-.018c.069.058.08.168.017.237l-11.35 13.456a.164.164 0 01-.127.058zm14.611-17.322a.153.153 0 01-.11-.04.172.172 0 01-.017-.237l2.862-3.278a.171.171 0 01.236-.017.17.17 0 01.018.236l-2.862 3.278a.164.164 0 01-.127.058zM37.69 60.075a.152.152 0 01-.11-.04.171.171 0 01-.017-.237l2.164-2.464a.171.171 0 01.236-.017c.07.064.075.167.018.237l-2.164 2.464a.164.164 0 01-.127.057zm2.587 1.865a.173.173 0 01-.104-.035.171.171 0 01-.023-.237c.33-.404.681-.813 1.027-1.206.468-.537.947-1.09 1.374-1.65a1.02 1.02 0 01.069-.081c0-.07.052-.139.121-.156.07-.017.202-.058.271.07.064.12-.034.213-.075.248-.029.028-.08.069-.12.12a34.609 34.609 0 01-1.386 1.663c-.34.392-.692.796-1.015 1.2a.173.173 0 01-.133.063h-.006z" fill="#000"/>
        <path d="M79.016 8.015H.02v2.343h78.996V8.015z" fill="#000" opacity=".13"/>
    </g>
    <defs>
        <clipPath id="clip0_3967_24747">
            <path fill="#fff" d="M0 0h80v70.202H0z"/>
        </clipPath>
    </defs>
</svg>
