<svg width="18" height="11" xmlns="http://www.w3.org/2000/svg">
    <path d="M12.75 0C15.645 0 18 2.327 18 5.186c0 2.86-2.355 5.187-5.25 5.187h-1.5a.745.745 0 01-.75-.74c0-.41.336-.742.75-.742h1.5c2.068 0 3.75-1.662 3.75-3.705 0-2.042-1.682-3.704-3.75-3.704h-1.5a.745.745 0 01-.75-.741c0-.41.336-.741.75-.741h1.5zm-6 0c.414 0 .75.331.75.74 0 .41-.336.742-.75.742h-1.5c-2.068 0-3.75 1.662-3.75 3.704 0 2.043 1.682 3.705 3.75 3.705h1.5c.414 0 .75.331.75.741s-.336.741-.75.741h-1.5C2.355 10.373 0 8.046 0 5.186 0 2.327 2.355 0 5.25 0h1.5zm4.5 4.446c.414 0 .75.33.75.74s-.336.741-.75.741h-4.5a.745.745 0 01-.75-.74c0-.41.336-.741.75-.741h4.5z" fill="#0797E1"/>
</svg>
