<svg width="24" height="24" xmlns="http://www.w3.org/2000/svg">
  <path d="M21.678 9.262c1.448-1 2.268-2.475 1.82-4.445l-3.16 2.182-2.485-1.134-.27-2.663L20.786.988c-1.465-.698-3.473-.807-4.957.218-1.815 1.254-2.357 3.646-1.46 5.707l-7.283 7.312c-1.483-.66-3.21-.603-4.577.312-1.463.98-2.134 2.682-1.907 4.38 0 0 .333 2.596 2.66 3.861 1.577.858 3.498.902 4.998-.102 1.736-1.163 2.359-3.346 1.685-5.328l7.527-7.556c1.4.48 2.955.333 4.205-.53zM7.205 20.608l-2.6.75-1.85-1.85.75-2.6 2.601-.75 1.85 1.85-.75 2.6z" fill="#000" fill-rule="nonzero"/>
</svg>
