<svg xmlns="http://www.w3.org/2000/svg" width="36" height="22">
  <view id="off" viewBox="0 0 36 22"/>
  <g fill="#4A4A4A" fill-rule="evenodd" transform="translate(0 -2)">
    <rect width="14" height="6" y="17.544"/>
    <g transform="rotate(-45 29.864 -3.778)">
      <rect width="16.196" height="8" x="4.723" y="1.002"/>
      <polygon points="1.169 2.175 6.819 7.822 1.169 7.822" transform="rotate(45 3.994 4.999)"/>
      <path d="M21.652442,0.995292341 L24.7524419,0.995292341 L24.7524419,0.995292341 C25.8570114,0.995292341 26.7524419,1.89072284 26.7524419,2.99529234 L26.7524419,6.99529234 L26.7524419,6.99529234 C26.7524419,8.09986184 25.8570114,8.99529234 24.7524419,8.99529234 L21.652442,8.99529234 L21.652442,0.995292341 Z"/>
    </g>
  </g>

  <view id="on" viewBox="36 0 36 22"/>
  <g fill="#FFF" fill-rule="evenodd" transform="translate(36 -2)">
    <rect width="14" height="6" y="17.544"/>
    <g transform="rotate(-45 29.864 -3.778)">
      <rect width="16.196" height="8" x="4.723" y="1.002"/>
      <polygon points="1.169 2.175 6.819 7.822 1.169 7.822" transform="rotate(45 3.994 4.999)"/>
      <path d="M21.652442,0.995292341 L24.7524419,0.995292341 L24.7524419,0.995292341 C25.8570114,0.995292341 26.7524419,1.89072284 26.7524419,2.99529234 L26.7524419,6.99529234 L26.7524419,6.99529234 C26.7524419,8.09986184 25.8570114,8.99529234 24.7524419,8.99529234 L21.652442,8.99529234 L21.652442,0.995292341 Z"/>
    </g>
  </g>
</svg>
