<svg width="20" height="20" viewBox="0 0 20 20" xmlns="http://www.w3.org/2000/svg"><title>iconOff</title><desc>Created with Sketch.</desc><g fill="none"><path d="M6.301 4.13c-.153-.243-.403-.41-.686-.457-.283-.048-.574.028-.798.208-1.769 1.522-2.818 3.749-2.818 6.12 0 4.415 3.585 8 8 8s8-3.585 8-8c0-2.364-1.044-4.587-2.817-6.094-.223-.179-.511-.255-.793-.208-.282.047-.531.212-.683.454l-.03.013c-.265.422-.174.976.213 1.29 1.332 1.117 2.11 2.778 2.11 4.545 0 3.312-2.688 6-6 6-3.311 0-6-2.688-6-6 0-1.759.77-3.413 2.08-4.543.39-.319.481-.878.213-1.305l.009-.023zm4.699-1.13c0-.552-.448-1-1-1s-1 .448-1 1v8c0 .552.448 1 1 1s1-.448 1-1v-8z" fill="#fff"/><path d="M2 18l16-16" stroke="#CA0000" stroke-width="4" stroke-linecap="round" stroke-linejoin="round"/><path d="M3 17l14-14" stroke="#fff" stroke-width="2" stroke-linecap="round" stroke-linejoin="round"/></g></svg>