<svg width="16" height="16" viewBox="0 0 16 16" xmlns="http://www.w3.org/2000/svg"><title>iconOn</title><desc>Created with Sketch.</desc><path d="M4.301 2.13l-.009.023c.269.426.177.986-.213 1.305-1.31 1.13-2.08 2.784-2.08 4.543 0 3.312 2.689 6 6 6 3.312 0 6-2.688 6-6 0-1.767-.778-3.429-2.11-4.545-.387-.314-.479-.868-.213-1.29l.03-.013c.152-.242.401-.407.683-.454.282-.047.571.029.793.208 1.773 1.507 2.817 3.73 2.817 6.094 0 4.415-3.585 8-8 8s-8-3.585-8-8c0-2.37 1.049-4.597 2.818-6.12.224-.18.514-.256.798-.208.283.048.533.214.686.457zm4.699-1.13v8c0 .552-.448 1-1 1s-1-.448-1-1v-8c0-.552.448-1 1-1s1 .448 1 1z" fill="#fff"/></svg>