<svg width="206" height="205" xmlns="http://www.w3.org/2000/svg" xmlns:xlink="http://www.w3.org/1999/xlink">
    <defs>
        <path d="M51 88c22.644 0 51-18.356 51-41 0-17.437-16.816-32.332-34.89-38.26-.538-.177-.355-1.054.022-2.113l.16-.432.614-1.56.16-.428.138-.407c.273-.853.347-1.506-.123-1.62-.402-.099-1.268.262-2.326.815l-.543.29-.568.317-2.366 1.364-.858.487-.275.152-.528.283c-.938.49-1.694.807-2.061.747-.535-.087-.33-1.012.074-2.13l.15-.4.245-.619.495-1.217.215-.556.12-.336.093-.303c.093-.33.123-.577.052-.696-.115-.195-.517-.124-1.09.117l-.301.135-.16.077-.337.171-.358.194-.376.213-.39.229-.603.368-.826.525-.824.542-1.18.8-.712.495a16.95 16.95 0 01-3.084 1.715l-.406.165c-.13.05-.257.097-.379.14l-.349.116-.315.094-.145.038-.26.061-.115.023-.198.029c-.03.003-.057.006-.083.007l-.07.003C24.795 6.635 0 24.356 0 47c0 22.644 28.356 41 51 41z" id="a"/>
        <path d="M41 65.922c18.204 0 41-14.757 41-32.961S59.204 0 41 0 0 14.757 0 32.96c0 18.205 22.796 32.962 41 32.962z" id="c"/>
    </defs>
    <g fill="none" fill-rule="evenodd">
        <g opacity=".5" fill-rule="nonzero">
            <path d="M204.255 114.42a6.278 6.278 0 01-1.702 3.08 5.743 5.743 0 01-2.675 1.505 6.63 6.63 0 01-2.708.113l-.029-.005-.047.08a35.085 35.085 0 01-4.122 5.58l-.18.2-.24.261-.159.17-.273.291a93.022 93.022 0 01-2.133 2.166l-.234.232-.05.056c-.312.35-.61.642-1.045.967a6.357 6.357 0 01-2.85 1.198l-.083.013-.082.012-.007.016a10.33 10.33 0 01-.418.84l-.051.092a8.253 8.253 0 01-1.677 2.098c-1.084.968-2.42 1.455-3.811 1.504v.028l-.075.651-.027.217a6.708 6.708 0 01-.138.815l-.067 1.593-.053 1.231c-.076 1.736-.158 3.54-.247 5.42l-.086 1.79c-.071 1.465-.39 2.673-.912 3.992a5.832 5.832 0 01-1.15 1.856c.083 0 .166 0 .25.002l.134.003c1.505.035 2.842.248 4.29.904 1.432.648 2.736 1.657 3.731 3.16a8.622 8.622 0 011.336 6.057 8.868 8.868 0 01-1.362 3.566 10.314 10.314 0 01-1.314 1.633 14.99 14.99 0 01-1.905 1.622l-.127.092-.197.14c-1.59 1.126-3.41 2.174-7.012 4.12l-2.815 1.517c-2.67 1.446-3.812 2.101-4.621 2.655l-.23.156-.183.124c-.732.492-1.416.919-2.575 1.62l-1.272.77-.287.175-.22.136c-.233.145-.43.27-.63.4l-.147.097-.077.053-.074.054c-.089.064-.206.152-.374.28l-.422.32-.235.178-.17.127c-.413.306-.736.53-1.145.792l-.771.489-.467.293-.24.149c-1.454.903-2.49 1.495-3.738 2.119a8.344 8.344 0 01-3.637.894c-2.538 1.455-5.86.827-8.21-1.335-.628.17-1.257.31-1.903.417l-.156.025a9.958 9.958 0 01-2.434.104 6.133 6.133 0 01-.328.721l-.125.221-.062.107-.038.06-.036.056c-.105.16-.226.314-.515.68l-.183.19-.144.147-.067.066-.043.041c-.324.309-.562.448-1.438.96-2.153 1.006-4.764.645-6.877-.817a8.274 8.274 0 01-2.477-2.65 7.92 7.92 0 01-.811-1.793l-.022-.069a9.485 9.485 0 01-.136-.483l-.451.148-.87.287-.05.028c-.09.048-.179.095-.271.142l-.094.047c-.487.243-.99.455-1.557.633-.542.171-1.247.345-1.854.454-.254.045-.508.083-.781.112l-.152.014a8.346 8.346 0 01-1.713-.01 8.07 8.07 0 01-2.905-.85 8.337 8.337 0 01-3.437-3.21c-.95 1.634-2.37 2.813-5.178 2.775-2.127-.03-3.732-.767-4.942-1.866a10.559 10.559 0 01-.138-.012l-.169-.018-1.99 1.008-1.647.83-1.823.912a340.432 340.432 0 01-5.994 2.933l-.338.159-.324.15-.29.132c-1.197.543-2.318.994-4.156 1.692l-2.046.774-.731.28-.36.14c-.546.213-.978.39-1.417.577l-.726.315-1.176.517c-1.597.705-3.26 1.46-5.753 2.603l-6.028 2.767-1.047.477-1.073.485-.271.124c-.229.105-.389.175-.603.265-.443.184-.884.344-1.363.484a8.715 8.715 0 01-3.717.258 8.38 8.38 0 01-3.185-1.149 8.372 8.372 0 01-3.645-4.64 8.396 8.396 0 01.075-5.31 8.314 8.314 0 011.706-2.88 8.52 8.52 0 01.994-.94l.099-.08c.08-.062.154-.118.227-.172l.04-.03.864-.676.255-.198c.903-.7 1.483-1.123 2.24-1.627l.416-.276.457-.301c2.204-1.45 3.98-2.558 5.798-3.594l1.403-.791 1.213-.678a636.22 636.22 0 016.438-3.52l1.242-.672-.005-.02a8.74 8.74 0 01-.121-.672l-.012-.085a8.451 8.451 0 01.281-3.522c.221-.746.52-1.397.875-1.99a9.065 9.065 0 011.341-1.732 11.245 11.245 0 01.926-.847l.19-.156.073-.07c.44-.412.874-.817 1.305-1.215l.268-.247-.295.086c-.63.183-1.262.365-1.898.548l-.062.044c-.153.105-.354.231-.69.441l-.27.133-.098.047c-.216.1-.36.147-.826.3l-.33.072-.166.033-.078.015-.1.016c-.333.052-.639.06-1.5.079h-.002l-6.153 1.773-1.575.451c-7.833 2.242-12.424 3.469-17.642 4.666l-.515.117c-8.196 1.863-15.616 3.012-22.893 3.427a8.319 8.319 0 01-5.984-2.059 8.236 8.236 0 01-2.658-4.522c-.339-1.57-.213-2.86.128-4.08.207-.74.513-1.453.907-2.113a8.194 8.194 0 012.767-2.844l.623-.39.527-.33c2.108-1.313 3.671-2.232 5.359-3.128l.655-.346.725-.381.63-.33c.627-.33 1.256-.657 1.907-.995l.92-.476-.026-.048a8.997 8.997 0 01-.228-.433l-.043-.09a8.71 8.71 0 01-.789-2.657l-.004-.037-.037-.007a8.587 8.587 0 01-2.37-.837l-.105-.057-.103-.032a19.36 19.36 0 01-2.617-1.046l-.127-.062a8.563 8.563 0 01-4.117-4.423 8.614 8.614 0 01-.538-1.898l-.02-.123-.004-.002a9.493 9.493 0 01-.283-.113l-.095-.04a8.643 8.643 0 01-5.152-6.64 8.748 8.748 0 01.081-3.162l.008-.037-1.12-1.652.28-.229.085-.065.185-.137 1.185-.856-.01-.01a8.357 8.357 0 01-1.254-1.629l-.043-.073a8.268 8.268 0 01-.961-2.551 8.277 8.277 0 01-.122-2.499c.043-.446.118-.861.215-1.258.16-.647.394-1.289.7-1.9.206-.414.45-.826.752-1.241a8.361 8.361 0 011.904-1.902l.795-.572.546-.389c1.03-.729 2.12-1.48 3.682-2.545l1.691-1.15-.022-.016a8.489 8.489 0 01-3.315-7.498l.01-.098c.165-1.714.742-3.18 1.577-4.482.257-.4.521-.758.806-1.109l.07-.085.08-.097.21-.246.25-.285.148-.193a69.404 69.404 0 013.154-3.822l1.168-1.302a8.43 8.43 0 01-1.192-2.486l-.018-.062h-.01a23.835 23.835 0 01-3.906-.583l-.247-.06-.053.034c-.468.293-.927.54-1.504.784l-.097.041c-1.587.657-3.346.939-5.267.602a8.325 8.325 0 01-3.464-1.45 8.381 8.381 0 01-3.21-4.611 8.312 8.312 0 01-.062-4.19 8.47 8.47 0 01.768-2.023c.34-.64.692-1.13 1.083-1.596a10.95 10.95 0 01.778-.834l.19-.184.014-.015c.329-.33.657-.617.998-.884l.093-.072.088-.067.135-.178c.08-.105.153-.198.235-.3l.073-.091c.34-.42.691-.81 1.094-1.199l1.245-1.2 1.217-1.17 1.146-1.099c1.408-1.348 2.84-2.714 4.307-4.11l1.183-1.122.043-.062c.802-1.136 1.6-2.256 2.422-3.396l.374-.517-.008-.014a8.551 8.551 0 01-.913-2.975l-.008-.067-.084.001a8.981 8.981 0 01-1.606-.135l-.11-.02a8.586 8.586 0 01-4.566-2.406 8.378 8.378 0 01-2.427-5.279 8.379 8.379 0 01.394-3.305 8.708 8.708 0 011.516-2.795l.532-.65.166-.201.16-.192c.756-.904 1.331-1.513 2.14-2.213l.798-.683.698-.594c1.017-.864 1.897-1.6 2.658-2.226l.108-.087-.006-.036a8.394 8.394 0 01-.078-.73l-.005-.092a8.335 8.335 0 01.785-4 8.39 8.39 0 011.278-1.963 8.564 8.564 0 011.606-1.444 9.837 9.837 0 011.185-.715l.083-.043.152-.076 1.283-.699 1.081-.593c2.292-1.26 4.101-2.29 5.95-3.389l.52-.31.044-.045c.393-.396.82-.747 1.273-1.056l.076-.052c.499-.333.928-.559 1.423-.785l.18-.08.193-.084c.435-.187.999-.41 1.958-.782a8.689 8.689 0 014.368-.494c1.2.173 2.402.575 3.619 1.416a8.438 8.438 0 012.291 2.363l.019.029.114-.01a50.062 50.062 0 018.75.039l.34.031.448.044.5.052c1.17.126 2.375.283 4.12.528l.415.058.096.008c.488.042.93.1 1.444.22a9.94 9.94 0 01.27-1 6.228 6.228 0 011.562-2.527 5.797 5.797 0 012.286-1.381c1.478-.484 3.206-.428 4.92.326a8.54 8.54 0 013.64 3.091 8.323 8.323 0 011.383 3.92l.008.108c.005.065.009.126.011.186l.004.102.064.94.016.236 1.027-.635 1.457-.897 1.43-.877c1.83-1.122 3.737-2.286 5.734-3.5l1.361-.827c1.482-.899 2.915-1.406 4.619-1.805a8.202 8.202 0 012.432-.21 83.111 83.111 0 013.106-5.31c.899-1.411 2.368-2.413 4.226-2.65 1.591-.204 3.08.18 4.375.89 1.246.682 2.08 1.503 2.766 2.42.415.557.766 1.161 1.039 1.792a7.96 7.96 0 01.621 2.218l7.561-4.825.04-.025.245-.144.1-.053c.082-.043.217-.11.489-.245l.174-.079.086-.036c.107-.043.246-.095.562-.211l.162-.053c.264-.085.363-.107 1.016-.25l.216-.035.127-.02c.248-.033.453-.043 1.184-.077l.192.005c.143.007.338.025.974.084l.232.042.051.008.097.022c.11.025.238.059.444.116l.84.238 1.036.465 1.126.724 1.115 1.023.961 1.292.69 1.438.38 1.419.124 1.276-.048 1.078-.146.88-.19.71-.204.572-.1.243-.234.477-.054.11-.041.08c-.111.213-.186.33-.37.616l-.294.404-.062.084c-.183.247-.25.32-.461.553l-.226.235-.05.05-.023.06a7.898 7.898 0 01-.861 1.653l-.071.105-.235.373-.085.134c-.084.13-.16.246-.242.364.917.065 1.861.313 2.789.76l.811-.549.283-.22a391.01 391.01 0 013.247-2.503l.707-.537c3.68-2.79 6.27-4.635 7.992-5.572l.108-.058c.29-.155.572-.293.918-.433.366-.15.748-.28 1.214-.393.426-.104.876-.18 1.387-.217a8.145 8.145 0 012.97.325c4.03 1.198 6.395 5.108 5.88 9.056a8.163 8.163 0 01-.726 2.48c-.194.41-.398.761-.615 1.086a8.074 8.074 0 01-1.061 1.296l-.05.05c-.362.36-.708.658-1.181 1.036l-.23.183-.175.138c-.632.494-1.441 1.1-2.002 1.504l-.173.124-.138.098-.124.085c-.43.295-.829.542-1.418.89l-.702.41-.205.123a4.958 4.958 0 00-.293.187l-.209.15-.187.137-.16.12c-.193.147-.416.32-.702.546l-1.11.879-.335.262-.247.192c-.16.124-.31.239-.456.348.088.395.147.808.17 1.25l1.062-.715c.77-.522 1.52-1.04 2.681-1.852l2.844-1.992.907-.631.389-.27c.546-.376 1.03-.705 1.544-1.051l1.04-.697.295-.197c1.57-1.044 2.537-1.64 3.774-2.291l.076-.04c.366-.192.74-.362 1.219-.526a8.196 8.196 0 011.67-.389l.315-.033.154-.013.102-.007c.266-.017.5-.009 1.146.013l.333.04.26.033.137.02c.596.089.905.205 2.147.67a8.316 8.316 0 014.744 6.725 8.007 8.007 0 01-.583 3.97 7.916 7.916 0 01-1.142 1.975c-.434.561-.77.896-1.256 1.338-.487.443-1.067.92-1.587 1.286l-.091.063-.199.135c-.54.366-1.017.664-1.766 1.113l-1.114.665-.277.168-.172.105c-.216.134-.382.24-.535.344l-.113.078-.008.045a9.146 9.146 0 01-.045.232l-.016.077a7.804 7.804 0 01-1.223 2.903 8.66 8.66 0 01-.592.79c-.178.213-.345.395-.522.577l-.067.069c-.347.352-.75.724-1.302 1.216l-.323.286-.913.804c-.812.718-1.63 1.4-2.462 2.043.21.75.406 1.495.585 2.235l.355 1.495a7.55 7.55 0 012.28.661l.05.024.005-.005a16.376 16.376 0 012.232-2.168l.156-.124.002-.053a8.51 8.51 0 01.16-1.413l.018-.086c.288-1.392.916-2.68 2.048-3.717a5.802 5.802 0 012.626-1.387c1.495-.357 3.152-.162 4.696.588a8.437 8.437 0 012.93 2.362 8.73 8.73 0 011.041 1.651c.245.505.41.951.54 1.397l.023-.014.15-.085.124-.069a8.415 8.415 0 011.29-.572 7.977 7.977 0 011.67-.397l.152-.019c2.472-.295 4.87.13 7.2 2.8 2.882 3.307 2.517 6.606 1.103 9.317a7.912 7.912 0 01-1.168 1.691 8.3 8.3 0 01-.994.95c-.15.123-.289.23-.444.345l-.747.552c-1.291.95-2.535 1.844-4.363 3.14l-.428.302c.139.4.277.8.415 1.204l.183.536.014.003a8.087 8.087 0 012.488 1.12l.05.034.038-.055c.243-.337.524-.656.846-.95l.065-.06c.972-.864 2.23-1.456 3.803-1.544 1.722-.096 3.398.474 4.791 1.472a8.654 8.654 0 012.105 2.146 8.79 8.79 0 011.225 2.573l.202.714.061.221.064.234c.269.992.42 1.705.525 2.617l.1.903.107 1.002.1.965c.067.66.125 1.258.174 1.798l.01.12.028.016c.184.115.365.238.542.369l.066.05a8.628 8.628 0 013.164 4.738c.177.697.238 1.28.25 1.856a8.806 8.806 0 01-.062 1.169l-.009.077-.018.142-.116 1.222-.063.672c-.218 2.361-.361 4.2-.47 6.112l-.03.51.011.055c.09.479.134.954.136 1.42v.078a8 8 0 01-.123 1.362l-.028.161c-.075.415-.187.92-.408 1.873z" fill="#ED1E45" opacity=".1"/>
            <path d="M119.736 4.812a6.035 6.035 0 012.961 1.638 5.526 5.526 0 011.448 2.573c.213.826.252 1.713.109 2.606l-.005.028.076.045a33.733 33.733 0 015.365 3.966l.192.174.252.231.164.152.28.263a89.46 89.46 0 012.082 2.052l.223.225.054.048c.336.3.617.587.93 1.006a6.118 6.118 0 011.151 2.74l.013.081.01.08.016.006c.273.121.542.255.808.402l.088.05a7.935 7.935 0 012.018 1.613c.93 1.043 1.399 2.329 1.446 3.667h.027l.626.072.208.025c.36.045.573.08.784.133l1.531.065 1.184.05c1.67.074 3.403.153 5.212.239l1.72.082c1.409.068 2.57.376 3.839.877.631.25 1.23.596 1.784 1.108 0-.08 0-.161.002-.242l.003-.128c.033-1.448.238-2.735.869-4.128a8.36 8.36 0 013.039-3.59 8.286 8.286 0 015.823-1.286c1.334.2 2.445.674 3.429 1.31a9.917 9.917 0 011.57 1.265c.562.552 1.06 1.15 1.56 1.833l.087.122.136.19c1.082 1.53 2.09 3.28 3.96 6.746l1.46 2.709c1.39 2.568 2.02 3.667 2.551 4.446l.15.22.12.177c.473.704.883 1.362 1.557 2.477l.74 1.224.169.276.13.212c.14.224.26.414.385.605l.093.142.052.074.051.072c.062.085.146.198.27.36l.308.405.17.226.122.164c.295.398.51.709.762 1.102l.47.742.282.449.143.23c.869 1.4 1.437 2.396 2.037 3.597a8.032 8.032 0 01.86 3.5c1.399 2.441.795 5.637-1.284 7.899.164.604.298 1.209.4 1.83l.025.15c.118.75.17 1.496.1 2.342.225.085.454.188.694.316l.212.12.102.06.059.036.054.035c.154.1.301.218.652.495l.184.177.141.139.064.064.04.041c.296.312.43.541.921 1.384.969 2.071.62 4.583-.785 6.616a7.957 7.957 0 01-2.547 2.383 7.613 7.613 0 01-1.725.78l-.066.021c-.168.052-.32.095-.465.132l.142.434.277.836.027.05c.046.085.091.17.136.26l.046.09c.234.468.437.953.608 1.498.165.522.332 1.2.436 1.783.044.245.08.489.108.752l.014.146c.047.51.056 1.013-.01 1.648a7.768 7.768 0 01-.817 2.795 8.016 8.016 0 01-3.086 3.307c1.57.915 2.704 2.28 2.667 4.982-.028 2.046-.737 3.591-1.794 4.755-.003.044-.007.089-.012.133l-.017.162.97 1.915.797 1.584.877 1.755a327.622 327.622 0 012.82 5.766l.153.325.145.313.127.278c.521 1.152.955 2.23 1.626 4l.744 1.968.269.703.135.347c.205.524.375.94.555 1.362l.303.699.496 1.131a421.674 421.674 0 002.503 5.536l2.66 5.799.459 1.008.466 1.031.12.262c.1.22.168.373.254.58.178.426.332.85.466 1.31a8.39 8.39 0 01.248 3.577 8.067 8.067 0 01-1.105 3.065 8.051 8.051 0 01-4.462 3.506c-1.7.54-3.487.492-5.104-.072a7.992 7.992 0 01-2.77-1.641 8.194 8.194 0 01-.904-.956l-.076-.095a8.157 8.157 0 01-.166-.219l-.028-.04-.65-.83-.19-.245a33.237 33.237 0 01-1.565-2.156l-.265-.4-.29-.44c-1.394-2.12-2.46-3.828-3.455-5.577l-.761-1.35-.652-1.167c-.95-1.71-1.947-3.537-3.385-6.195l-.646-1.194-.02.005c-.21.047-.425.085-.644.116l-.083.011a8.12 8.12 0 01-3.386-.27 8.274 8.274 0 01-1.913-.842 8.716 8.716 0 01-1.665-1.29 10.816 10.816 0 01-.815-.89l-.15-.183-.066-.07c-.397-.423-.787-.841-1.169-1.256l-.237-.258.082.283c.176.606.351 1.215.527 1.827l.042.06c.101.146.222.34.424.664l.128.259.045.094c.096.208.142.346.288.795l.07.318.032.159.014.076.016.095c.05.32.056.615.075 1.443v.002l1.705 5.92.434 1.516c2.155 7.536 3.335 11.954 4.485 16.974l.113.495c1.791 7.885 2.896 15.025 3.294 22.027a8.007 8.007 0 01-1.979 5.756 7.918 7.918 0 01-4.348 2.558 7.822 7.822 0 01-3.923-.123 8.38 8.38 0 01-2.032-.872 7.88 7.88 0 01-2.733-2.663l-.376-.599-.317-.507c-1.262-2.029-2.146-3.533-3.007-5.156l-.333-.63-.367-.698-.317-.605c-.317-.605-.632-1.21-.956-1.836l-.458-.886-.046.026a8.65 8.65 0 01-.417.22l-.085.04c-.84.403-1.7.65-2.556.76l-.035.004-.007.035a8.266 8.266 0 01-.805 2.28l-.054.101-.032.1c-.275.864-.61 1.706-1.005 2.518l-.06.121a8.236 8.236 0 01-4.252 3.962 8.278 8.278 0 01-1.826.518l-.118.018-.002.005c-.034.09-.07.18-.109.272l-.038.091a8.312 8.312 0 01-6.384 4.957 8.406 8.406 0 01-3.04-.078l-.035-.007-1.59 1.078-.219-.27-.063-.082-.132-.178-.822-1.14-.01.01a8.036 8.036 0 01-1.566 1.207l-.07.04a7.946 7.946 0 01-2.454.925c-.892.179-1.66.19-2.402.118a8.806 8.806 0 01-3.037-.88 8.417 8.417 0 01-1.193-.724 8.041 8.041 0 01-1.829-1.832l-.549-.765-.374-.525a238.216 238.216 0 01-2.447-3.543l-1.105-1.627-.016.022a8.16 8.16 0 01-7.21 3.189l-.093-.009c-1.648-.16-3.058-.714-4.31-1.518a11.622 11.622 0 01-1.066-.775l-.082-.067-.094-.078a16.548 16.548 0 01-.236-.202l-.274-.24-.186-.142a66.738 66.738 0 01-3.674-3.034l-1.252-1.125c-.71.498-1.51.89-2.39 1.148l-.06.017v.008a22.947 22.947 0 01-.56 3.76l-.057.237.032.05c.282.451.519.893.754 1.448l.04.094c.63 1.526.901 3.218.578 5.066a8.013 8.013 0 01-1.395 3.334 8.059 8.059 0 01-4.433 3.089 7.987 7.987 0 01-4.029.06 8.14 8.14 0 01-1.944-.74 8.526 8.526 0 01-1.535-1.042 10.53 10.53 0 01-.802-.748l-.177-.183-.014-.014a10.18 10.18 0 01-.85-.96l-.07-.09-.064-.084-.171-.13c-.101-.077-.19-.147-.29-.226l-.086-.07a12.606 12.606 0 01-1.153-1.053l-1.153-1.197-1.125-1.172-1.057-1.103c-1.296-1.354-2.61-2.731-3.951-4.143l-1.08-1.138-.059-.041c-1.093-.772-2.17-1.54-3.265-2.331l-.497-.36-.013.008a8.218 8.218 0 01-2.862.88l-.063.006v.081a8.647 8.647 0 01-.13 1.546l-.019.105a8.263 8.263 0 01-2.313 4.393 8.053 8.053 0 01-5.076 2.335 8.05 8.05 0 01-3.177-.378 8.37 8.37 0 01-2.687-1.46l-.626-.511-.193-.16-.184-.153c-.87-.728-1.455-1.281-2.128-2.06l-.657-.767-.571-.672c-.83-.978-1.539-1.825-2.14-2.557l-.084-.104-.034.006c-.232.035-.466.06-.702.075l-.09.005a8.009 8.009 0 01-3.845-.755 8.066 8.066 0 01-1.887-1.23 8.238 8.238 0 01-1.388-1.545 9.464 9.464 0 01-.688-1.14l-.04-.08-.075-.146-.671-1.235-.57-1.04a190.668 190.668 0 00-3.259-5.724l-.298-.5-.043-.043a8.401 8.401 0 01-1.016-1.225l-.05-.073a9.217 9.217 0 01-.754-1.37l-.078-.172-.08-.186a61.47 61.47 0 01-.751-1.884 8.365 8.365 0 01-.475-4.202 7.957 7.957 0 011.361-3.482 8.116 8.116 0 012.272-2.205l.028-.018-.01-.11a48.198 48.198 0 01.038-8.418l.03-.327.042-.431.05-.482c.121-1.125.272-2.284.507-3.964l.056-.4.008-.09c.04-.47.097-.896.211-1.39a9.551 9.551 0 01-.96-.26 5.988 5.988 0 01-2.43-1.503 5.578 5.578 0 01-1.328-2.2c-.465-1.421-.411-3.084.314-4.733a8.215 8.215 0 012.972-3.503 8 8 0 013.768-1.33l.104-.008c.063-.004.122-.008.179-.01l.098-.004.904-.062.227-.015-.61-.988-.863-1.402-.844-1.375a1693.76 1693.76 0 01-3.364-5.517l-.795-1.31c-.865-1.426-1.352-2.804-1.736-4.444a7.897 7.897 0 01-.201-2.34 79.893 79.893 0 01-5.106-2.988c-1.357-.865-2.32-2.279-2.549-4.066-.195-1.53.173-2.963.856-4.21.657-1.198 1.445-2.001 2.328-2.66a8.599 8.599 0 011.722-1 7.649 7.649 0 012.133-.598l-4.639-7.275-.024-.038-.138-.236-.052-.096-.235-.47-.075-.168-.035-.083a21.012 21.012 0 01-.204-.54l-.05-.156c-.082-.254-.103-.35-.24-.977l-.035-.209-.018-.121c-.033-.239-.042-.436-.074-1.14l.004-.185c.007-.137.024-.325.082-.937l.039-.223.008-.049.021-.093c.025-.105.057-.23.112-.427l.228-.808.448-.997.695-1.084.985-1.072 1.242-.925 1.382-.663 1.365-.367 1.227-.12 1.036.048.847.14.682.183.55.195.233.098.46.224.104.052.077.04c.206.106.318.179.593.356l.389.282.08.06c.238.176.309.24.532.444l.225.217.049.048.057.022a7.591 7.591 0 011.59.829l.101.068.359.226.129.082c.124.08.236.155.35.232.062-.882.3-1.79.73-2.683l-.527-.78-.212-.272a376.15 376.15 0 01-2.407-3.124l-.516-.68c-2.683-3.542-4.456-6.034-5.358-7.69l-.055-.103a9.074 9.074 0 01-.417-.883 8.036 8.036 0 01-.378-1.169 7.96 7.96 0 01-.208-1.334c-.063-.89.004-1.82.312-2.857 1.153-3.878 4.912-6.154 8.708-5.659.923.12 1.687.371 2.384.7.394.185.732.382 1.044.59.538.36.889.666 1.247 1.022l.048.048c.346.348.632.681.996 1.136l.176.221.132.17a69.255 69.255 0 011.447 1.925l.119.166.094.133.082.12c.283.413.52.797.854 1.364l.396.675.117.197c.084.139.136.219.18.282l.145.2.132.18.115.154c.141.187.308.4.525.676l.845 1.069.252.321.184.239c.12.154.23.298.335.438.38-.084.777-.14 1.202-.163l-.688-1.022c-.502-.742-1-1.463-1.78-2.58l-1.916-2.736-.606-.872-.259-.375c-.362-.525-.679-.99-1.012-1.486l-.67-1-.189-.284c-1.003-1.51-1.577-2.441-2.203-3.63l-.038-.074a8.082 8.082 0 01-.506-1.173 7.89 7.89 0 01-.373-1.606l-.032-.304-.013-.147-.007-.099c-.016-.256-.008-.482.013-1.102l.038-.32.032-.25.019-.133c.086-.573.197-.87.645-2.065a7.996 7.996 0 016.466-4.565 7.694 7.694 0 013.817.56 7.61 7.61 0 011.898 1.1c.54.417.862.74 1.287 1.208.426.469.885 1.027 1.236 1.527l.061.088.13.19c.352.521.638.979 1.07 1.7l.64 1.072.16.266.102.166c.128.208.23.367.33.515l.075.109.044.007.223.043.074.015a7.5 7.5 0 012.791 1.178c.293.194.532.378.76.57.204.17.38.331.555.502l.065.064c.339.334.697.721 1.17 1.252l.275.31.772.879a47.17 47.17 0 011.965 2.369 61.26 61.26 0 012.15-.563l1.436-.341a7.269 7.269 0 01.636-2.193l.023-.05-.005-.004a15.75 15.75 0 01-2.084-2.147l-.12-.15-.05-.003a8.177 8.177 0 01-1.359-.154l-.082-.017c-1.34-.277-2.577-.881-3.574-1.97a5.583 5.583 0 01-1.334-2.526c-.343-1.44-.156-3.033.565-4.519a8.117 8.117 0 012.271-2.82 8.393 8.393 0 011.588-1 8.343 8.343 0 011.343-.52l-.013-.022-.082-.144-.066-.12a8.098 8.098 0 01-.55-1.24 7.679 7.679 0 01-.382-1.608l-.018-.146c-.284-2.378.124-4.686 2.692-6.926 3.18-2.774 6.351-2.423 8.958-1.062.697.363 1.174.72 1.626 1.123a7.983 7.983 0 01.914.956c.117.144.22.278.33.428l.532.719c.913 1.242 1.773 2.439 3.018 4.197l.29.412c.385-.134.77-.266 1.16-.4l.514-.176.003-.013a7.783 7.783 0 011.077-2.394l.032-.047-.052-.038a5.974 5.974 0 01-.914-.813l-.057-.063c-.831-.935-1.4-2.145-1.485-3.659-.092-1.657.456-3.27 1.415-4.61a8.323 8.323 0 012.064-2.025 8.45 8.45 0 012.474-1.179l.687-.194.212-.059.225-.061c.954-.259 1.64-.404 2.516-.505l.868-.096.964-.103.928-.097c.635-.064 1.21-.12 1.728-.167l.115-.01.016-.026c.11-.177.228-.351.354-.522l.048-.064a8.297 8.297 0 014.557-3.044c.67-.17 1.23-.229 1.784-.24a8.462 8.462 0 011.124.06l.074.008.136.017 1.175.112.647.06c2.27.21 4.038.348 5.876.453l.49.028.053-.01c.46-.087.917-.129 1.366-.13h.075c.49.002.88.045 1.31.117l.154.027c.399.073.884.18 1.801.392z" fill="#009AFF" opacity=".3"/>
            <path d="M86.038 0c1.28 0 2.467.359 3.45.985A5.856 5.856 0 0191.595 3.3a6.77 6.77 0 01.732 2.666l.002.03.09.029a35.73 35.73 0 016.486 2.816l.24.134.315.18.205.117.352.205c.753.442 1.542.93 2.64 1.623l.283.18.068.037c.419.23.777.458 1.2.817a6.485 6.485 0 011.842 2.557l.032.08.03.08.018.003c.311.06.62.133.93.222l.103.03a8.406 8.406 0 012.468 1.185c1.21.856 2 2.073 2.368 3.444l.028-.007.663-.074.222-.024c.382-.039.61-.054.841-.05l1.597-.299 1.235-.23c1.742-.323 3.551-.655 5.44-.998l1.798-.326c1.47-.266 2.743-.226 4.173-.01a5.938 5.938 0 012.107.718 16.733 16.733 0 01-.056-.25l-.028-.134c-.31-1.504-.404-2.882-.085-4.473.316-1.572 1.018-3.1 2.284-4.436a8.786 8.786 0 015.708-2.719 9.029 9.029 0 013.855.535c.702.255 1.326.568 1.922.932.713.436 1.37.935 2.048 1.522l.12.105.185.164c1.482 1.322 2.94 2.89 5.698 6.025l2.152 2.45c2.048 2.323 2.96 3.308 3.695 3.986l.208.191.166.155c.656.614 1.236 1.196 2.199 2.188l1.055 1.088.24.245.186.187c.197.199.367.366.541.534l.13.124.07.064.071.062c.084.074.198.17.363.307l.416.346.23.193.165.14c.399.341.696.61 1.05.957l.661.654.398.397.204.204c1.23 1.239 2.055 2.133 2.96 3.23a8.516 8.516 0 011.722 3.411c2.027 2.19 2.165 5.636.556 8.47a19.5 19.5 0 01.85 1.796l.06.149c.3.747.532 1.505.662 2.396.252.034.513.085.791.16l.249.074.12.038.068.023.064.023c.184.067.364.153.792.356l.232.139.179.11.08.05.052.033c.38.252.573.457 1.282 1.21 1.493 1.91 1.732 4.588.765 7.025a8.445 8.445 0 01-2.064 3.07 8.077 8.077 0 01-1.595 1.22l-.064.037a9.666 9.666 0 01-.448.246l.25.415.485.798.039.044c.068.078.135.156.203.237l.068.082c.354.428.679.88.986 1.403.294.5.629 1.16.875 1.739.104.242.2.486.29.751l.05.148c.17.515.3 1.032.382 1.705.116.945.108 1.91-.178 3.083a8.506 8.506 0 01-2.4 4.154c1.84.57 3.336 1.71 3.942 4.512.458 2.12.094 3.887-.72 5.342l.019.14.02.172 1.458 1.747 1.2 1.447 1.325 1.603a347.204 347.204 0 014.287 5.286l.235.3.224.287.198.257c.813 1.066 1.518 2.077 2.633 3.745l1.236 1.856.446.663.222.326c.336.493.61.882.898 1.276l.479.649.782 1.05a446.901 446.901 0 003.904 5.123l4.13 5.357.713.932.728.955.186.241c.156.204.263.346.4.54.285.397.545.799.794 1.243a8.9 8.9 0 011.108 3.636 8.561 8.561 0 01-.411 3.431 8.544 8.544 0 01-3.774 4.69 8.551 8.551 0 01-5.29 1.144 8.465 8.465 0 01-3.25-1.035 8.68 8.68 0 01-1.163-.772l-.101-.08a8.621 8.621 0 01-.224-.186l-.038-.034-.87-.703-.255-.208a35.214 35.214 0 01-2.13-1.854l-.368-.35-.404-.385c-1.946-1.858-3.453-3.37-4.898-4.939l-1.108-1.213-.95-1.05a648.778 648.778 0 01-4.973-5.593l-.951-1.08-.02.01c-.206.098-.42.19-.638.274l-.082.03c-1.204.45-2.407.601-3.563.53a8.764 8.764 0 01-2.177-.413 9.232 9.232 0 01-2.027-.935 11.457 11.457 0 01-1.053-.726l-.2-.153-.084-.057c-.511-.342-1.013-.681-1.506-1.018l-.307-.21.152.273c.326.584.653 1.171.98 1.761l.058.053c.139.127.31.299.596.585l.194.236.068.087c.15.192.23.324.488.753l.147.312.071.157.033.075.039.094c.128.32.205.622.422 1.474v.002l3.17 5.71.81 1.463c4.022 7.273 6.293 11.556 8.677 16.469l.235.484c3.728 7.721 6.57 14.835 8.65 21.975a8.498 8.498 0 01-.674 6.422 8.401 8.401 0 01-3.882 3.681c-1.482.698-2.792.87-4.082.81a8.876 8.876 0 01-2.306-.416 8.347 8.347 0 01-3.458-2.099l-.531-.529-.448-.448c-1.787-1.795-3.058-3.138-4.334-4.61l-.494-.572-.545-.633-.472-.55c-.471-.55-.94-1.099-1.425-1.669l-.684-.806-.042.039c-.122.11-.248.22-.378.325l-.078.064a8.878 8.878 0 01-2.459 1.394l-.035.013.001.038a8.773 8.773 0 01-.288 2.55l-.032.116-.01.11a19.778 19.778 0 01-.438 2.842l-.033.14a8.741 8.741 0 01-3.448 5.11 8.78 8.78 0 01-1.763.97l-.117.048-.001.005c-.014.102-.03.204-.048.307l-.018.104c-.479 2.63-2.117 5.009-4.697 6.322a8.909 8.909 0 01-3.874.971h-.04l-1.384 1.494-.29-.226-.085-.07-.179-.153-1.12-.981-.009.012a8.528 8.528 0 01-1.33 1.621l-.063.06a8.429 8.429 0 01-2.314 1.54 8.43 8.43 0 01-2.453.696 9.329 9.329 0 01-3.347-.184 8.916 8.916 0 01-1.404-.463 8.518 8.518 0 01-2.326-1.456l-.75-.66-.51-.454a252.41 252.41 0 01-3.373-3.076l-1.529-1.417-.011.026c-1.184 2.606-3.612 4.578-6.687 5.017l-.1.014c-1.74.229-3.328-.008-4.813-.54a12.31 12.31 0 01-1.285-.546l-.1-.05-.116-.058a17.518 17.518 0 01-.292-.152l-.34-.183-.226-.103a70.689 70.689 0 01-4.519-2.257l-1.56-.863a8.597 8.597 0 01-2.196 1.756l-.057.032.001.01c.215 1.321.323 2.658.317 4.018l-.003.258.046.046c.398.398.748.797 1.124 1.315l.062.087c1.016 1.427 1.699 3.111 1.805 5.098a8.505 8.505 0 01-.646 3.777 8.551 8.551 0 01-3.844 4.252 8.47 8.47 0 01-4.147 1.024 8.638 8.638 0 01-2.185-.3 9.031 9.031 0 01-1.834-.71 11.154 11.154 0 01-1.006-.582l-.226-.147-.019-.011c-.403-.25-.763-.51-1.106-.789l-.093-.076-.086-.072-.209-.093a16.137 16.137 0 01-.352-.165l-.107-.052a13.353 13.353 0 01-1.44-.812l-1.477-.962-1.441-.942-1.355-.887c-1.661-1.09-3.346-2.2-5.068-3.338l-1.386-.918-.071-.029a394.747 394.747 0 01-3.928-1.628l-.6-.253-.011.01a8.716 8.716 0 01-2.746 1.593l-.064.022.02.084c.123.52.203 1.063.233 1.628l.006.113a8.77 8.77 0 01-1.343 5.092 8.543 8.543 0 01-4.687 3.625 8.531 8.531 0 01-3.372.369 8.866 8.866 0 01-3.123-.867l-.769-.38-.237-.118-.227-.114c-1.072-.545-1.808-.977-2.688-1.62l-.861-.637-.75-.558a219.943 219.943 0 01-2.82-2.131l-.112-.087-.034.014a8.55 8.55 0 01-.707.245l-.09.026a8.486 8.486 0 01-4.153.139 8.543 8.543 0 01-2.243-.82 8.726 8.726 0 01-1.801-1.266 10.029 10.029 0 01-.982-1.014l-.061-.072-.111-.133-.988-1.116-.837-.939a202.038 202.038 0 00-4.729-5.136l-.427-.446-.055-.034a8.9 8.9 0 01-1.341-1.023l-.068-.064a9.767 9.767 0 01-1.106-1.235l-.122-.16-.127-.172c-.285-.39-.636-.9-1.225-1.768a8.871 8.871 0 01-1.491-4.229 8.445 8.445 0 01.576-3.923 8.614 8.614 0 011.821-2.82l.025-.026-.036-.112a51.127 51.127 0 01-1.966-8.708l-.047-.345-.06-.456-.062-.51a129.696 129.696 0 01-.42-4.217l-.038-.426-.014-.096c-.07-.495-.113-.948-.113-1.487a10.12 10.12 0 01-1.054-.04 6.342 6.342 0 01-2.868-.97 5.91 5.91 0 01-1.896-1.957c-.819-1.358-1.159-3.09-.803-4.966a8.72 8.72 0 012.236-4.33 8.487 8.487 0 013.575-2.275l.106-.033c.064-.02.124-.037.182-.053l.1-.028.92-.28.23-.069-.866-.876-1.224-1.242-1.2-1.22c-1.533-1.562-3.126-3.19-4.79-4.897l-1.132-1.164c-1.233-1.267-2.065-2.575-2.851-4.177a8.375 8.375 0 01-.766-2.37 84.623 84.623 0 01-5.985-1.869c-1.609-.57-2.94-1.8-3.602-3.592-.567-1.536-.527-3.104-.119-4.555.393-1.396 1.016-2.414 1.77-3.306a9.124 9.124 0 011.542-1.444 8.112 8.112 0 012.06-1.128l-6.524-6.409-.034-.034-.2-.21-.075-.087c-.061-.072-.158-.19-.355-.43l-.118-.156-.056-.077c-.067-.096-.15-.223-.339-.51l-.09-.149c-.144-.242-.189-.336-.48-.952l-.085-.207-.048-.122c-.09-.238-.147-.44-.348-1.16l-.04-.192c-.025-.144-.052-.341-.139-.988l-.012-.24L0 96.188v-.101c0-.115.004-.25.014-.468l.043-.89.225-1.137.46-1.286.762-1.343 1.062-1.253 1.27-1.015 1.322-.705 1.24-.416 1.081-.2.908-.057.749.026.613.071.265.045.528.122.12.029.09.022c.237.062.37.11.697.227l.468.2.098.041c.287.126.375.176.655.332l.284.17.062.039.064.009c.74.105 1.288.266 1.84.477l.12.046.425.148.153.054c.147.053.28.103.416.156a7.834 7.834 0 01.116-2.947l-.731-.68-.284-.23a398.504 398.504 0 01-3.23-2.654l-.695-.58c-3.615-3.019-6.04-5.17-7.366-6.667l-.082-.093a9.616 9.616 0 01-.64-.813c-.233-.33-.45-.68-.67-1.117-.2-.4-.379-.83-.532-1.33a8.32 8.32 0 01-.358-3.026c.266-4.283 3.608-7.532 7.646-7.927a8.31 8.31 0 012.63.153c.45.098.847.22 1.219.361.64.243 1.076.476 1.53.758l.063.038c.44.277.814.553 1.299.936l.234.187.177.143c.635.514 1.423 1.18 1.953 1.644l.162.143.129.116.113.103c.391.36.728.7 1.208 1.206l.57.603.168.176c.12.123.192.193.253.248l.196.173.18.155.156.13c.19.16.413.341.702.574l1.128.902.337.273.247.202c.16.13.309.254.45.373a7.73 7.73 0 011.203-.456l-.954-.892a208.092 208.092 0 00-2.454-2.24l-2.63-2.37-.834-.757-.357-.325c-.499-.457-.937-.862-1.399-1.294l-.93-.873-.263-.249c-1.396-1.32-2.21-2.146-3.14-3.226l-.057-.066a8.566 8.566 0 01-.802-1.091 8.366 8.366 0 01-.769-1.57l-.104-.308-.05-.149-.03-.1c-.077-.26-.123-.496-.249-1.142l-.037-.34-.027-.266-.012-.141c-.048-.613-.003-.947.175-2.289a8.485 8.485 0 015.59-6.26 8.153 8.153 0 014.078-.333 8.06 8.06 0 012.222.681c.657.303 1.067.56 1.617.942.551.383 1.16.85 1.641 1.283l.084.076.18.166c.487.454.892.859 1.51 1.5l.915.956.23.237.144.146c.182.184.326.325.465.454l.102.094.047-.002.241-.01.08-.001a7.945 7.945 0 013.164.55c.348.13.64.263.92.407.252.128.471.252.693.386l.083.051c.43.264.891.58 1.507 1.015l.358.255 1.007.723c.9.642 1.764 1.3 2.594 1.979a64.964 64.964 0 012.085-1.095l1.403-.696a7.714 7.714 0 01.135-2.418l.012-.056-.007-.003a16.684 16.684 0 01-2.664-1.722l-.159-.127-.053.01c-.469.092-.91.148-1.44.165l-.09.003c-1.448.033-2.87-.296-4.16-1.183a5.916 5.916 0 01-1.98-2.292c-.697-1.405-.883-3.097-.492-4.804a8.615 8.615 0 011.674-3.456 8.906 8.906 0 011.402-1.414 8.85 8.85 0 011.263-.857l-.02-.02-.117-.13-.098-.108a8.582 8.582 0 01-.864-1.15 8.142 8.142 0 01-.776-1.57l-.054-.146c-.86-2.39-.988-4.873 1.131-7.801 2.624-3.626 5.983-4.02 9-3.237.806.21 1.385.465 1.947.773a8.456 8.456 0 011.171.77c.156.12.295.234.444.362l.72.616a294.33 294.33 0 014.118 3.617l.398.356c.365-.23.732-.46 1.101-.69l.49-.304v-.014a8.26 8.26 0 01.543-2.732l.022-.056-.063-.027a6.327 6.327 0 01-1.139-.622l-.073-.051c-1.081-.768-1.958-1.883-2.405-3.427-.49-1.69-.309-3.487.363-5.101.431-1.035 1-1.872 1.65-2.586a8.964 8.964 0 012.274-1.809l.663-.364.205-.112.218-.118c.924-.494 1.597-.808 2.48-1.122l.873-.306.97-.337.936-.322c.64-.218 1.22-.413 1.746-.586l.115-.037.01-.031a8.57 8.57 0 01.243-.624l.034-.077a8.806 8.806 0 013.981-4.234 7.98 7.98 0 011.787-.673 8.572 8.572 0 011.174-.209l.08-.008.143-.015 1.24-.165.684-.092a173.71 173.71 0 006.177-.935l.514-.09.051-.022c.455-.2.917-.352 1.38-.461l.077-.018c.508-.114.92-.163 1.38-.19l.167-.01c.43-.02.956-.025 1.954-.025z" fill="#D7EDFF" opacity=".8"/>
        </g>
        <path d="M119.125 43.613l.711 1.955-2.25 9.374 5.038-1.833.985 2.707-9.021 3.283-.712-1.955 2.25-9.374-4.51 1.641-.986-2.706 8.495-3.092zm10.19-9.002l.57 1.564-1.8 7.5 4.03-1.467.788 2.165L125.686 47l-.569-1.564 1.8-7.5-3.609 1.314-.788-2.165 6.796-2.474zm8.539-7.162l6.231 1.099-.252 1.434-4.645 4.895 3.695.652-.35 1.985-6.618-1.167.253-1.433 4.644-4.896-3.308-.584.35-1.985z" fill="#000" fill-rule="nonzero"/>
        <path d="M48 95.5c5.226 0 11.155 2.23 15.59 5.82 4.12 3.336 6.91 7.813 6.91 12.68 0 2.17-1.151 4.297-3.276 6.254-2.088 1.924-5.128 3.704-8.622 5.255-9.122 4.05-21.351 6.574-26.958 6.574-5.226 0-11.155-2.23-15.59-5.82-4.12-3.335-6.91-7.813-6.91-12.68 0-2.17 1.15-4.297 3.275-6.253 2.089-1.924 5.129-3.704 8.622-5.255C30.164 98.025 42.393 95.5 48 95.5z" stroke="#000" stroke-width="3" fill="#B89A7B"/>
        <path fill="#000" d="M10.66 118L6 122h6zM13.086 121.638l-3.466 5.07 5.795-1.553zM15.438 125.438l-2.036 5.794 5.196-3z"/>
        <path d="M93 61.5c12.243 0 26.122 5.213 36.51 13.563 9.467 7.611 15.99 17.8 15.99 28.937s-6.523 21.326-15.99 28.937C119.121 141.287 105.242 146.5 93 146.5c-12.243 0-26.122-5.213-36.51-13.563-9.467-7.611-15.99-17.8-15.99-28.937s6.523-21.326 15.99-28.937C66.879 66.713 80.758 61.5 93 61.5z" stroke="#000" stroke-width="3" fill="#B89A7B"/>
        <g>
            <path d="M101 112.5c5.226 0 11.155 2.23 15.59 5.82 4.12 3.336 6.91 7.813 6.91 12.68 0 2.17-1.151 4.297-3.276 6.254-2.088 1.924-5.128 3.704-8.622 5.255-9.122 4.05-21.351 6.574-26.958 6.574-5.226 0-11.155-2.23-15.59-5.82-4.12-3.335-6.91-7.813-6.91-12.68 0-2.17 1.15-4.297 3.275-6.253 2.089-1.924 5.129-3.704 8.622-5.255 9.123-4.05 21.352-6.575 26.959-6.575z" stroke="#000" stroke-width="3" fill="#B89A7B"/>
            <path fill="#000" d="M63.66 135L59 139h6zM66.086 138.638l-3.466 5.07 5.795-1.553zM68.438 142.438l-2.036 5.794 5.196-3z"/>
        </g>
        <g transform="translate(84 57)">
            <mask id="b" fill="#fff">
                <use xlink:href="#a"/>
            </mask>
            <g fill="#B89A7B">
                <use xlink:href="#a"/>
                <path stroke="#000" stroke-width="3" d="M59.486-1.22c.328-.036.602.001.82.067.457.138.773.41.984.766.184.31.373.92.096 1.888h0l-.108.348-.136.385-.228.589-.497 1.222-.126.315.14-.074.126-.07.128-.07.844-.48 2.376-1.37.588-.327.56-.3C66.621.849 67.87.584 68.436.722c.495.12.848.384 1.102.738.198.275.342.63.376 1.076.033.434-.062 1.041-.286 1.736h0l-.15.44-.172.46-.612 1.558-.152.409c-.055.156-.11.306-.155.447 9.497 3.26 18.587 8.924 25.12 16.088C99.626 30.387 103.5 38.408 103.5 47c0 11.137-6.523 21.326-15.99 28.937C77.121 84.287 63.242 89.5 51 89.5c-12.243 0-26.122-5.213-36.51-13.563C5.024 68.326-1.5 58.137-1.5 47c0-11.3 5.893-21.45 14.684-28.93 9.41-8.007 22.12-12.928 34.23-12.935h0l.002-.001.127-.019.04-.007.225-.053.09-.023h0l.277-.083.313-.104c.1-.036.205-.074.313-.116h0l.384-.156a15.46 15.46 0 002.802-1.561h0l.719-.5 1.196-.81.843-.555.847-.538.626-.382.41-.241.4-.226.386-.21.89-.427c.476-.203.882-.311 1.182-.344z"/>
            </g>
            <g mask="url(#b)">
                <g transform="translate(20 24.04)">
                    <mask id="d" fill="#fff">
                        <use xlink:href="#c"/>
                    </mask>
                    <use fill="#E5D4C2" xlink:href="#c"/>
                    <path d="M73.5 46.96c7.77 0 17.5-6.267 17.5-14 0-7.731-9.73-14-17.5-14S56 25.23 56 32.96c0 7.733 9.73 14 17.5 14zM20 63.96c10.212 0 23-8.282 23-18.5 0-10.216-12.788-18.5-23-18.5s-23 8.284-23 18.5c0 10.218 12.788 18.5 23 18.5z" fill="#A38565" mask="url(#d)"/>
                    <path d="M51 51.96c3.108 0 7-2.686 7-6 0-3.313-3.892-6-7-6s-7 2.687-7 6c0 3.314 3.892 6 7 6z" fill="#000" mask="url(#d)"/>
                    <path d="M30.276 41.647a1.5 1.5 0 111.448 2.628c-2.905 1.6-5.241 2.498-7.077 2.679-1.851.182-4.217-.263-7.147-1.3a1.5 1.5 0 111-2.828c2.553.904 4.52 1.273 5.853 1.142 1.347-.133 3.344-.9 5.923-2.321z" fill="#000" fill-rule="nonzero" mask="url(#d)"/>
                    <path d="M75.276 28.647a1.5 1.5 0 111.448 2.628c-2.905 1.6-5.241 2.498-7.077 2.679-1.851.182-4.217-.263-7.147-1.3a1.5 1.5 0 111-2.828c2.553.904 4.52 1.273 5.853 1.142 1.347-.133 3.344-.9 5.923-2.321z" fill="#000" fill-rule="nonzero" mask="url(#d)" transform="rotate(-18 69.5 31.227)"/>
                </g>
            </g>
        </g>
    </g>
</svg>
