<svg width="31" height="31" xmlns="http://www.w3.org/2000/svg">
    <g fill="#0797E1" fill-rule="evenodd">
        <path d="M15.5 0C6.94 0 0 6.94 0 15.5 0 24.06 6.94 31 15.5 31 24.06 31 31 24.06 31 15.5A15.5 15.5 0 0015.5 0zm0 30C7.492 30 1 23.508 1 15.5S7.492 1 15.5 1 30 7.492 30 15.5A14.5 14.5 0 0115.5 30z" fill-rule="nonzero"/>
        <path d="M15.164 18.074a1.1 1.1 0 00-.834.344 1.335 1.335 0 000 1.758 1.1 1.1 0 00.834.345c.316.007.62-.118.84-.345.45-.499.45-1.259 0-1.758a1.13 1.13 0 00-.84-.344z" fill-rule="nonzero"/>
        <path d="M14.123 10h2v7h-2z"/>
    </g>
</svg>
