<svg width="32" height="32" xmlns="http://www.w3.org/2000/svg" xmlns:xlink="http://www.w3.org/1999/xlink">
    <g fill="none" fill-rule="evenodd">
        <circle id="a" fill="#0797E1" opacity=".297" cx="16" cy="16" r="16"/>
        <circle fill="#0797E1" cx="16" cy="16" r="12"/>
        <path d="M17.02 20.709v.01c0 .822-.625 1.489-1.395 1.489-.771 0-1.396-.667-1.396-1.49v-.01h2.791zM15.625 9.647c.346 0 .627.3.627.67v.756c1.467.311 2.572 1.692 2.572 3.349v2.456l1.256 1.969a.716.716 0 01.037.698.63.63 0 01-.561.36h-7.863a.63.63 0 01-.56-.36.716.716 0 01.036-.698l1.256-1.969v-2.456c0-1.657 1.105-3.038 2.572-3.349v-.756c0-.37.281-.67.628-.67z" fill="#FFF" fill-rule="nonzero"/>
    </g>
    <animate xlink:href="#a" attributeName="r" from="12" to="16" begin="0s" dur="0.6s"/>
    <animate xlink:href="#a" attributeName="opacity" from=".297" to="0" begin="0.6s" dur="0.3s"/>
    <animate xlink:href="#a" attributeName="r" from="12" to="16" begin="0.9s" dur="0.6s"/>
    <animate xlink:href="#a" attributeName="opacity" from=".297" to="0" begin="1.5s" dur="0.3s"/>
    <animate xlink:href="#a" attributeName="r" from="12" to="16" begin="1.8s" dur="0.6s"/>
    <animate xlink:href="#a" attributeName="opacity" from=".297" to="0" begin="2.4s" dur="0.3s" fill="freeze"/>
</svg>
