<svg width="15" height="18" xmlns="http://www.w3.org/2000/svg">
    <path d="M11.507 4.384c1.4.207 2.393.816 3.007 1.755-1.184.738-2.12 1.849-1.96 3.747.142 1.724 1.166 2.732 2.446 3.326v.036a10.394 10.394 0 01-1.532 2.889l-.334.448c-.529.688-1.198 1.397-2.244 1.397-1.104 0-1.838-.695-2.97-.714-1.197-.019-1.856.581-2.95.732h-.374c-.804-.114-1.452-.737-1.925-1.298-1.394-1.658-2.47-3.8-2.671-6.541v-.806c.085-1.962 1.06-3.557 2.354-4.33.684-.41 1.623-.76 2.67-.604.448.068.906.218 1.308.367.38.143.856.396 1.307.383.254-.007.508-.117.763-.217l.154-.057c.902-.319 1.785-.684 2.95-.513zM11.17 0c.105 1.27-.39 2.218-.992 2.905-.59.682-1.4 1.343-2.707 1.243-.088-1.251.409-2.13 1.01-2.815C9.039.695 10.062.126 11.04 0h.131z" fill="#5A5A5A" fill-rule="nonzero"/>
</svg>
