<svg width="16" height="17" viewBox="0 0 16 17" xmlns="http://www.w3.org/2000/svg"><title>options</title><desc>Created with Sketch.</desc><path d="M8 12.072c.948 0 1.759-.349 2.432-1.048.673-.699 1.01-1.54 1.01-2.525 0-.984-.337-1.826-1.01-2.525-.673-.699-1.484-1.048-2.432-1.048s-1.759.349-2.432 1.048c-.673.699-1.01 1.54-1.01 2.525 0 .984.337 1.826 1.01 2.525.673.699 1.484 1.048 2.432 1.048zm6.113-2.734l1.73 1.397c.179.133.205.319.077.559l-1.653 2.953c-.103.186-.269.239-.5.16l-2.038-.838c-.538.399-1 .678-1.384.838l-.308 2.235c-.051.239-.179.359-.384.359h-3.306c-.205 0-.333-.12-.384-.359l-.308-2.235c-.487-.213-.948-.492-1.384-.838l-2.038.838c-.231.08-.397.027-.5-.16l-1.653-2.953c-.128-.239-.103-.426.077-.559l1.73-1.397c-.026-.186-.038-.466-.038-.838 0-.372.013-.652.038-.838l-1.73-1.397c-.179-.133-.205-.319-.077-.559l1.653-2.953c.103-.186.269-.239.5-.16l2.038.838c.538-.399 1-.678 1.384-.838l.308-2.235c.051-.239.179-.359.384-.359h3.306c.205 0 .333.12.384.359l.308 2.235c.487.213.948.492 1.384.838l2.038-.838c.231-.08.397-.027.5.16l1.653 2.953c.128.239.103.426-.077.559l-1.73 1.397c.026.186.038.466.038.838 0 .372-.013.652-.038.838z" fill="#585858"/></svg>