<svg width="25" height="17" fill="none" xmlns="http://www.w3.org/2000/svg">
    <path d="M24.016 5.345a.714.714 0 01-.018.21l-1.542 6.234a.703.703 0 01-.677.536l-9.252.047H3.271a.702.702 0 01-.68-.537L1.049 5.578a.714.714 0 01-.019-.216A1.488 1.488 0 010 3.943c0-.82.66-1.487 1.472-1.487.812 0 1.472.667 1.472 1.487 0 .462-.21.875-.537 1.148l1.93 1.966a2.62 2.62 0 001.858.782c.819 0 1.6-.393 2.092-1.052L11.46 2.54a1.49 1.49 0 01-.432-1.052c0-.82.66-1.487 1.472-1.487.812 0 1.472.667 1.472 1.488 0 .397-.156.758-.409 1.026l.003.003 3.15 4.26a2.62 2.62 0 002.096 1.062c.7 0 1.357-.275 1.851-.775l1.943-1.963a1.49 1.49 0 01-.55-1.158c0-.82.66-1.487 1.472-1.487.812 0 1.472.667 1.472 1.487 0 .647-.412 1.197-.984 1.402zm-1.71 9.247a.705.705 0 00-.702-.709H3.474c-.388 0-.701.318-.701.709v1.7c0 .39.313.708.7.708h18.131c.387 0 .701-.317.701-.708v-1.7z" fill="#EDA51E"/>
</svg>
