<svg width="20" height="20" fill="none" xmlns="http://www.w3.org/2000/svg">
    <path fill-rule="evenodd" clip-rule="evenodd" d="M15 7.083h-.833V5.417c0-2.3-1.866-4.167-4.166-4.167a4.168 4.168 0 00-4.167 4.167v1.666h-.833c-.917 0-1.667.75-1.667 1.667v8.333c0 .917.75 1.667 1.667 1.667h10c.916 0 1.666-.75 1.666-1.667V8.75c0-.917-.75-1.667-1.666-1.667zm-5 7.5c-.916 0-1.666-.75-1.666-1.666 0-.917.75-1.667 1.667-1.667.916 0 1.666.75 1.666 1.667 0 .916-.75 1.666-1.666 1.666zM7.5 5.417v1.666h5V5.417c0-1.384-1.116-2.5-2.5-2.5a2.497 2.497 0 00-2.5 2.5z" fill="#EDA51E"/>
</svg>
