<svg width="21" height="16" xmlns="http://www.w3.org/2000/svg">
    <path d="M9.943 2.904c.472.47.517 1.286.214 2.26-.158.49.46.219.46.22 1.97-.825 3.688-.873 4.315.024.335.478.304 1.148-.005 1.926-.117.292-.013.383.178.45l.138.045c1.11.344 2.345 1.176 2.344 2.642 0 2.426-3.498 5.482-8.758 5.482-4.013 0-8.115-1.945-8.115-5.143 0-1.672 1.06-3.606 2.884-5.43 2.436-2.436 5.277-3.546 6.345-2.476zm-1.856 4.29c-3.201.317-5.63 2.278-5.421 4.38.208 2.102 2.972 3.549 6.173 3.233 3.202-.317 5.63-2.278 5.421-4.38-.207-2.102-2.971-3.55-6.173-3.232zm-2.835 3.324c.661-1.343 2.384-2.102 3.907-1.706 1.577.408 2.382 1.895 1.737 3.34-.653 1.478-2.533 2.266-4.127 1.752-1.54-.497-2.19-2.017-1.517-3.386zm2.386.508c-.496-.208-1.136.006-1.442.486-.31.481-.165 1.056.327 1.28.5.228 1.163.011 1.473-.483.304-.5.143-1.069-.358-1.283zm1.222-.507c-.19-.075-.428.016-.54.204-.108.188-.048.402.142.48.194.08.442-.012.554-.204.107-.192.038-.409-.156-.48zm9.7-8.73l.176.186.168.195a5.115 5.115 0 01.975 4.57l-.072.243a.74.74 0 01-1.434-.356l.025-.098a3.64 3.64 0 00-4.226-4.682.741.741 0 01-.406-1.421l.097-.028a5.12 5.12 0 014.696 1.39zm-1.774 1.947c.62.685.785 1.62.52 2.44a.638.638 0 01-1.235-.301l.057-.227a1.217 1.217 0 00-1.312-1.454l-.139.021a.637.637 0 11-.265-1.246 2.493 2.493 0 012.374.767z" fill="#ACACAC" fill-rule="nonzero"/>
</svg>
