<svg width="16" height="14" xmlns="http://www.w3.org/2000/svg">
    <path d="M15.008.509a4.694 4.694 0 01-1.933.763A2.942 2.942 0 0010.84.207C9.068.28 7.685 1.82 7.748 3.651c0 .257.026.512.077.763-2.587-.116-4.99-1.418-6.555-3.55-.8 1.548-.405 3.468.937 4.544a1.838 1.838 0 01-1.349-.39c-.08 1.566.919 2.973 2.388 3.364-.41.164-.858.201-1.288.106.319 1.326 1.445 2.277 2.766 2.335A4.757 4.757 0 01.43 12.252a8.598 8.598 0 004.836 1.527c4.992 0 8.866-4.5 8.66-10.048v-.053a5.708 5.708 0 001.504-1.776 5.034 5.034 0 01-1.719.542A3.634 3.634 0 0015.008.509z" fill="#ACACAC" fill-rule="nonzero"/>
</svg>
