<svg width="11" height="12" xmlns="http://www.w3.org/2000/svg">
    <path d="M8.744 4.619a1.962 1.962 0 01-1.538-.748L3.862 5.566c.044.162.075.33.075.506 0 .191-.037.372-.089.547l3.33 1.688a1.962 1.962 0 011.567-.782 1.96 1.96 0 011.97 1.952 1.96 1.96 0 01-1.97 1.952 1.96 1.96 0 01-1.969-1.952c0-.177.032-.344.076-.507L3.51 7.275A1.966 1.966 0 010 6.072 1.96 1.96 0 011.968 4.12c.644 0 1.21.31 1.57.783l3.327-1.688a1.913 1.913 0 01-.09-.549A1.96 1.96 0 018.744.714a1.96 1.96 0 011.97 1.952 1.96 1.96 0 01-1.97 1.953z" fill="#0797E1" fill-rule="nonzero"/>
</svg>
