<svg width="49" height="43" xmlns="http://www.w3.org/2000/svg">
  <g fill="none" fill-rule="evenodd">
    <path d="M30.863 3.488l16.522 29.157a6.4 6.4 0 01-5.568 9.555H6.83a6.4 6.4 0 01-5.407-9.824L19.888 3.219a6.4 6.4 0 0110.975.269z" fill="#FFE3BF"/>
    <path d="M23.45 26.238l-.538-7.833L22.784 15h3.789l-.128 3.405-.538 7.833H23.45zm1.228 6.221c-.648 0-1.19-.226-1.625-.678-.435-.452-.653-1.011-.653-1.677 0-.683.218-1.25.653-1.702.435-.453.977-.679 1.625-.679.649 0 1.19.226 1.626.679.435.452.653 1.02.653 1.702 0 .666-.218 1.225-.653 1.677-.435.452-.977.678-1.626.678z" fill="#FF8F00" fill-rule="nonzero"/>
  </g>
</svg>
