<svg width="25" height="27" xmlns="http://www.w3.org/2000/svg">
    <g fill="none" fill-rule="evenodd">
        <path d="M5.613 7.41l-.62-.9c-.5-.712-.32-1.482.392-1.98a1.576 1.576 0 0 1 2.194.386l5.348 7.581.351.457-5.163-7.585c-.504-.719-.409-1.63.31-2.133a1.59 1.59 0 0 1 2.213.39l6.673 9.428c.504.719.257 1.704-.462 2.207a1.556 1.556 0 0 1-.388.192l-.17 1.625-.232 2.228c-.194.385-.36.616-.5.694-.138.078-.384.078-.737 0l-4.765-.694c-.095-.083-.62-.49-.694-.595l-6.19-9.18a1.598 1.598 0 0 1 .39-2.227c.603-.42 1.51-.34 2.05.106z" fill="#F99F00"/>
        <path d="M2.176 12.549l5.432 7.922.028-.02c.102.181.208.363.335.548a7.686 7.686 0 0 0 13.208-7.793c-.603-1.197-1.058-2.463-1.486-3.733l-1.08-2.205s-.348-1.232-1.58-.883c-1.233.349-.883 1.582-.883 1.582l.936 3.676c-3.17 2.173-3.834 4.234-1.66 7.404 0 0-.529.362-.891-.167-1.81-2.64-1.509-5.23 1.66-7.403l-.362-.528-.403-.587-5.03-7.336s-.724-1.057-1.78-.332c-1.057.725-.332 1.78-.332 1.78l4.756 6.938c-.185.104-.37.204-.557.319l-5.09-7.422s-.724-1.057-1.78-.332c-1.056.725-.332 1.78-.332 1.78l5.09 7.423c-.174.131-.34.264-.504.398l-4.39-6.402S4.756 6.12 3.7 6.844c-1.057.725-.333 1.78-.333 1.78l4.667 6.808c-.14.188-.268.379-.383.572L4.289 11.1s-.724-1.057-1.78-.332c-1.058.724-.333 1.78-.333 1.78z" fill="#FFC937"/>
        <g fill="#099CD0">
            <path d="M7.685 24.416c-2.561 0-5.15-2.588-5.15-5.15 0-.354-.26-.64-.613-.64-.355 0-.668.286-.668.64 0 3.843 2.589 6.431 6.431 6.431.354 0 .64-.313.64-.667 0-.354-.286-.614-.64-.614"/>
            <path d="M4.483 25.67c-1.921 0-3.202-1.28-3.202-3.202a.64.64 0 1 0-1.28 0c0 2.562 1.92 4.483 4.482 4.483a.64.64 0 1 0 0-1.28M17.27 1.277a.64.64 0 0 0 0 1.28c2.562 0 5.124 2.3 5.124 5.124a.64.64 0 0 0 1.28 0c0-3.531-2.561-6.404-6.404-6.404"/>
            <path d="M20.472.023c-.353 0-.64.26-.64.613 0 .354.287.667.64.667 1.922 0 3.176 1.425 3.176 3.176 0 .354.313.64.667.64.353 0 .613-.286.613-.64 0-2.457-1.894-4.456-4.456-4.456"/>
        </g>
    </g>
</svg>
