<svg width="18" height="17" xmlns="http://www.w3.org/2000/svg">
    <path d="M17.24 8.613c.199 0 .36.16.36.357v7.148l-.007.072a.36.36 0 01-.353.286.341.341 0 01-.046 0l-8.642-1.119A.358.358 0 018.238 15V8.97c0-.197.162-.357.36-.357zm-10.125 0a.37.37 0 01.374.367v6.005a.371.371 0 01-.374.367.36.36 0 01-.048 0l-6.74-.862A.37.37 0 010 14.123V8.98c0-.203.168-.367.374-.367zm-.048-7.487a.388.388 0 01.295.088c.08.07.127.17.127.276v6.006a.371.371 0 01-.374.368H.375A.371.371 0 010 7.496V2.353a.37.37 0 01.327-.368zM17.194.003A.362.362 0 0117.6.36v7.146a.359.359 0 01-.36.358H8.598a.359.359 0 01-.36-.358V1.478a.358.358 0 01.314-.357z" fill="#5A5A5A" fill-rule="nonzero"/>
</svg>
