<svg viewBox="0 0 753 177" xmlns="http://www.w3.org/2000/svg">
    <g fill="none" fill-rule="evenodd">
        <path fill="#D8D9D9" d="M52.497.948L.948 52.498v72.901l51.549 51.55h72.9l51.551-51.55V52.497L125.398.948z"/>
        <path fill="#FFF" d="M53.9 4.333L4.332 53.899v70.098L53.9 173.563h70.098l49.566-49.566V53.899L123.998 4.333z"/>
        <path fill="#ED1E45" d="M57.168 165.67l-44.943-44.944V57.17l44.943-44.944h63.56l44.941 44.944v63.557l-44.941 44.944z"/>
        <path d="M47.033 93.271l-1.2-5.53a236.956 236.956 0 01-2.162-9.583 672.025 672.025 0 00-2.082-9.769h-.32c-.641 3.196-1.296 6.467-1.961 9.816a212.25 212.25 0 01-2.122 9.536l-1.283 5.53h11.13zm2.402 10.598H33.502L30.3 118.152H18.29l16.333-60.084h14.171l16.335 60.084H52.637l-3.202-14.283zM90.83 107.647c6.457 0 9.687-2.734 9.687-8.201 0-2.642-.8-4.562-2.402-5.76-1.602-1.199-4.031-1.797-7.285-1.797h-6.646v15.758h6.646zm-1.122-25.343c2.883 0 4.977-.658 6.285-1.98 1.308-1.32 1.963-3.118 1.963-5.392 0-2.272-.669-3.9-2.003-4.883-1.334-.983-3.39-1.476-6.165-1.476h-5.604v13.731h5.524zM72.415 58.069h17.853c2.724 0 5.245.23 7.567.691 2.323.461 4.35 1.275 6.086 2.442 1.733 1.168 3.095 2.704 4.083 4.607.987 1.906 1.481 4.302 1.481 7.188a16.31 16.31 0 01-.52 4.056 14.411 14.411 0 01-1.562 3.777c-.695 1.168-1.602 2.212-2.722 3.133-1.121.923-2.43 1.598-3.924 2.029v.368c3.736.798 6.553 2.336 8.448 4.606 1.894 2.275 2.841 5.439 2.841 9.492 0 3.073-.52 5.715-1.56 7.927-1.04 2.212-2.482 4.04-4.324 5.483-1.842 1.444-3.991 2.52-6.445 3.224-2.456.709-5.098 1.061-7.926 1.061H72.415V58.07zM138.469 87.005c6.405 0 9.607-3.194 9.607-9.584 0-3.133-.814-5.345-2.441-6.635-1.63-1.291-4.018-1.936-7.166-1.936h-6.565v18.155h6.565zm-18.336-28.936h19.056c2.829 0 5.485.322 7.966.968 2.483.644 4.645 1.72 6.486 3.224 1.842 1.507 3.295 3.503 4.364 5.991 1.067 2.487 1.6 5.544 1.6 9.17 0 3.5-.547 6.541-1.641 9.121-1.094 2.582-2.575 4.7-4.443 6.36-1.87 1.658-4.031 2.888-6.485 3.685-2.457.8-5.072 1.2-7.847 1.2h-7.285v20.364h-11.771V58.069z" fill="#FFF"/>
        <path d="M248.8 124l6.3-20H279l6.2 20h8.9l-22.2-65.6h-9.4L240.3 124h8.5zm28.1-26.7h-19.7l3.1-10c1.2-3.667 2.333-7.317 3.4-10.95 1.067-3.633 2.1-7.35 3.1-11.15h.4c1.067 3.8 2.133 7.517 3.2 11.15 1.067 3.633 2.2 7.283 3.4 10.95l3.1 10zm40.871 27.9c2.867 0 5.55-.683 8.05-2.05 2.5-1.367 4.717-2.983 6.65-4.85h.3l.7 5.7h6.8V52.8h-8.3v18.7l.4 8.3c-2.133-1.733-4.233-3.1-6.3-4.1-2.066-1-4.5-1.5-7.3-1.5s-5.466.6-8 1.8c-2.533 1.2-4.766 2.9-6.7 5.1-1.933 2.2-3.483 4.883-4.65 8.05-1.166 3.167-1.75 6.717-1.75 10.65 0 8.133 1.817 14.4 5.45 18.8 3.634 4.4 8.517 6.6 14.65 6.6zm1.8-6.9c-4.266 0-7.566-1.633-9.9-4.9-2.333-3.267-3.5-7.833-3.5-13.7 0-2.8.367-5.333 1.1-7.6.734-2.267 1.734-4.217 3-5.85 1.267-1.633 2.75-2.9 4.45-3.8 1.7-.9 3.517-1.35 5.45-1.35 2 0 3.95.383 5.85 1.15 1.9.767 3.884 2.083 5.95 3.95v25.4c-2 2.267-4 3.95-6 5.05-2 1.1-4.133 1.65-6.4 1.65zm57.172 6.9c2.8 0 5.467-.583 8-1.75 2.533-1.167 4.767-2.883 6.7-5.15 1.933-2.267 3.467-5.033 4.6-8.3 1.133-3.267 1.7-6.967 1.7-11.1 0-3.733-.417-7.117-1.25-10.15-.833-3.033-2.067-5.633-3.7-7.8s-3.65-3.833-6.05-5c-2.4-1.167-5.167-1.75-8.3-1.75-2.733 0-5.4.65-8 1.95-2.6 1.3-5 2.917-7.2 4.85l.2-8.8V52.8h-8.2V124h6.6l.7-5h.3c2.133 1.933 4.417 3.45 6.85 4.55 2.433 1.1 4.783 1.65 7.05 1.65zm-1.4-6.9c-1.6 0-3.45-.383-5.55-1.15-2.1-.767-4.217-2.083-6.35-3.95V87.7c4.733-4.4 9.067-6.6 13-6.6 2.267 0 4.217.433 5.85 1.3a10.78 10.78 0 014 3.65c1.033 1.567 1.783 3.45 2.25 5.65.467 2.2.7 4.633.7 7.3 0 3-.35 5.7-1.05 8.1-.7 2.4-1.667 4.417-2.9 6.05-1.233 1.633-2.7 2.9-4.4 3.8-1.7.9-3.55 1.35-5.55 1.35zm42.471 6.9c1.134 0 2.067-.067 2.8-.2.734-.133 1.367-.333 1.9-.6l-1.1-6.2c-.466.133-.816.2-1.05.2h-.75c-.6 0-1.133-.267-1.6-.8-.466-.533-.7-1.467-.7-2.8v-62h-8.2v61.4c0 3.6.667 6.333 2 8.2 1.334 1.867 3.567 2.8 6.7 2.8zm34.272 0c3 0 5.85-.567 8.55-1.7 2.7-1.133 5.083-2.783 7.15-4.95 2.066-2.167 3.716-4.833 4.95-8 1.233-3.167 1.85-6.75 1.85-10.75 0-4.067-.617-7.683-1.85-10.85-1.234-3.167-2.884-5.85-4.95-8.05-2.067-2.2-4.45-3.867-7.15-5s-5.55-1.7-8.55-1.7c-3 0-5.85.567-8.55 1.7-2.7 1.133-5.084 2.8-7.15 5-2.067 2.2-3.717 4.883-4.95 8.05-1.234 3.167-1.85 6.783-1.85 10.85 0 4 .616 7.583 1.85 10.75 1.233 3.167 2.883 5.833 4.95 8 2.066 2.167 4.45 3.817 7.15 4.95s5.55 1.7 8.55 1.7zm0-6.8c-2.067 0-3.967-.45-5.7-1.35-1.734-.9-3.217-2.167-4.45-3.8-1.234-1.633-2.184-3.583-2.85-5.85-.667-2.267-1-4.8-1-7.6s.333-5.35 1-7.65c.666-2.3 1.616-4.283 2.85-5.95 1.233-1.667 2.716-2.95 4.45-3.85 1.733-.9 3.633-1.35 5.7-1.35 2.066 0 3.966.45 5.7 1.35 1.733.9 3.216 2.183 4.45 3.85 1.233 1.667 2.183 3.65 2.85 5.95.666 2.3 1 4.85 1 7.65 0 2.8-.334 5.333-1 7.6-.667 2.267-1.617 4.217-2.85 5.85-1.234 1.633-2.717 2.9-4.45 3.8-1.734.9-3.634 1.35-5.7 1.35zm53.071 6.8c2.933 0 5.733-.55 8.4-1.65a26.03 26.03 0 007.3-4.55l-3.6-5.5a25.27 25.27 0 01-5.15 3.45c-1.9.967-3.983 1.45-6.25 1.45-2.2 0-4.233-.45-6.1-1.35a13.484 13.484 0 01-4.75-3.8c-1.3-1.633-2.317-3.583-3.05-5.85-.733-2.267-1.1-4.8-1.1-7.6s.383-5.35 1.15-7.65c.767-2.3 1.817-4.283 3.15-5.95 1.333-1.667 2.933-2.95 4.8-3.85 1.867-.9 3.9-1.35 6.1-1.35 1.933 0 3.683.4 5.25 1.2 1.567.8 3.05 1.833 4.45 3.1l4.2-5.4c-1.733-1.533-3.733-2.867-6-4s-5-1.7-8.2-1.7c-3.133 0-6.117.567-8.95 1.7a21.273 21.273 0 00-7.45 5c-2.133 2.2-3.833 4.883-5.1 8.05-1.267 3.167-1.9 6.783-1.9 10.85 0 4 .583 7.583 1.75 10.75s2.767 5.833 4.8 8 4.45 3.817 7.25 4.95 5.8 1.7 9 1.7zm33.072-1.2v-12.8l9.1-10.6 14.2 23.4h9l-18.5-29.1 16.3-19.5h-9.1l-20.7 25.6h-.3V52.8h-8.1V124h8.1zm54.171 0v-22.1h8.1c3.467 0 6.733-.433 9.8-1.3 3.067-.867 5.767-2.2 8.1-4 2.333-1.8 4.183-4.1 5.55-6.9 1.367-2.8 2.05-6.1 2.05-9.9 0-3.933-.683-7.25-2.05-9.95-1.367-2.7-3.217-4.867-5.55-6.5-2.333-1.633-5.067-2.8-8.2-3.5-3.133-.7-6.5-1.05-10.1-1.05h-22.4V124h14.7zm7.2-33.8h-7.2V70.5h6.8c4 0 7.067.7 9.2 2.1 2.133 1.4 3.2 3.8 3.2 7.2 0 6.933-4 10.4-12 10.4zm48.626 35c1.667 0 3.117-.117 4.35-.35 1.234-.233 2.25-.517 3.05-.85l-1.8-10.9c-.4.133-.716.2-.95.2h-.85c-.6 0-1.183-.3-1.75-.9-.566-.6-.85-1.667-.85-3.2V53.9h-14.7v54.7c0 2.533.234 4.817.7 6.85.467 2.033 1.217 3.767 2.25 5.2 1.034 1.433 2.417 2.55 4.15 3.35 1.734.8 3.867 1.2 6.4 1.2zm28.627 0c3.4 0 6.316-.717 8.75-2.15 2.433-1.433 4.716-3.417 6.85-5.95h.3l1.1 6.9h12V74.4h-14.7v32.8c-1.467 1.933-2.834 3.333-4.1 4.2-1.267.867-2.834 1.3-4.7 1.3-2.134 0-3.7-.667-4.7-2s-1.5-3.8-1.5-7.4V74.4h-14.7v30.8c0 6.267 1.216 11.167 3.65 14.7 2.433 3.533 6.35 5.3 11.75 5.3zm55.126 0c3.333 0 6.267-.417 8.8-1.25 2.533-.833 4.667-1.967 6.4-3.4 1.733-1.433 3.033-3.117 3.9-5.05.867-1.933 1.3-4.033 1.3-6.3 0-2.267-.4-4.217-1.2-5.85-.8-1.633-1.85-3.017-3.15-4.15a19.67 19.67 0 00-4.3-2.85 53.7 53.7 0 00-4.75-2.05 1472.75 1472.75 0 01-3.65-1.35 27.762 27.762 0 01-3.1-1.35c-.9-.467-1.617-.983-2.15-1.55-.533-.567-.8-1.25-.8-2.05 0-2.6 1.867-3.9 5.6-3.9 1.733 0 3.467.367 5.2 1.1 1.733.733 3.5 1.767 5.3 3.1l6.6-8.8c-2.133-1.6-4.633-3.05-7.5-4.35-2.867-1.3-6.2-1.95-10-1.95-2.867 0-5.467.383-7.8 1.15-2.333.767-4.333 1.817-6 3.15a13.479 13.479 0 00-3.85 4.9c-.9 1.933-1.35 4.033-1.35 6.3 0 2.067.4 3.883 1.2 5.45a14.47 14.47 0 003.1 4.1 19.455 19.455 0 004.2 2.95c1.533.8 3.067 1.5 4.6 2.1 1.267.533 2.5 1.017 3.7 1.45 1.2.433 2.283.917 3.25 1.45.967.533 1.733 1.117 2.3 1.75.567.633.85 1.35.85 2.15 0 1.333-.5 2.367-1.5 3.1-1 .733-2.6 1.1-4.8 1.1-2.133 0-4.233-.433-6.3-1.3s-4.233-2.167-6.5-3.9l-6.6 9.2c2.533 2.067 5.517 3.733 8.95 5 3.433 1.267 6.783 1.9 10.05 1.9z" fill="#000" fill-rule="nonzero"/>
    </g>
</svg>
