<svg viewBox="0 0 177 177" xmlns="http://www.w3.org/2000/svg">
    <g fill="none" fill-rule="evenodd">
        <path fill="#D8D9D9" d="M52.497.948L.948 52.498v72.901l51.549 51.55h72.9l51.551-51.55V52.497L125.398.948z"/>
        <path fill="#FFF" d="M53.9 4.333L4.332 53.899v70.098L53.9 173.563h70.098l49.566-49.566V53.899L123.998 4.333z"/>
        <path fill="#ED1E45" d="M57.168 165.67l-44.943-44.944V57.17l44.943-44.944h63.56l44.941 44.944v63.557l-44.941 44.944z"/>
        <path d="M47.033 93.271l-1.2-5.53a236.956 236.956 0 01-2.162-9.583 672.025 672.025 0 00-2.082-9.769h-.32c-.641 3.196-1.296 6.467-1.961 9.816a212.25 212.25 0 01-2.122 9.536l-1.283 5.53h11.13zm2.402 10.598H33.502L30.3 118.152H18.29l16.333-60.084h14.171l16.335 60.084H52.637l-3.202-14.283zM90.83 107.647c6.457 0 9.687-2.734 9.687-8.201 0-2.642-.8-4.562-2.402-5.76-1.602-1.199-4.031-1.797-7.285-1.797h-6.646v15.758h6.646zm-1.122-25.343c2.883 0 4.977-.658 6.285-1.98 1.308-1.32 1.963-3.118 1.963-5.392 0-2.272-.669-3.9-2.003-4.883-1.334-.983-3.39-1.476-6.165-1.476h-5.604v13.731h5.524zM72.415 58.069h17.853c2.724 0 5.245.23 7.567.691 2.323.461 4.35 1.275 6.086 2.442 1.733 1.168 3.095 2.704 4.083 4.607.987 1.906 1.481 4.302 1.481 7.188a16.31 16.31 0 01-.52 4.056 14.411 14.411 0 01-1.562 3.777c-.695 1.168-1.602 2.212-2.722 3.133-1.121.923-2.43 1.598-3.924 2.029v.368c3.736.798 6.553 2.336 8.448 4.606 1.894 2.275 2.841 5.439 2.841 9.492 0 3.073-.52 5.715-1.56 7.927-1.04 2.212-2.482 4.04-4.324 5.483-1.842 1.444-3.991 2.52-6.445 3.224-2.456.709-5.098 1.061-7.926 1.061H72.415V58.07zM138.469 87.005c6.405 0 9.607-3.194 9.607-9.584 0-3.133-.814-5.345-2.441-6.635-1.63-1.291-4.018-1.936-7.166-1.936h-6.565v18.155h6.565zm-18.336-28.936h19.056c2.829 0 5.485.322 7.966.968 2.483.644 4.645 1.72 6.486 3.224 1.842 1.507 3.295 3.503 4.364 5.991 1.067 2.487 1.6 5.544 1.6 9.17 0 3.5-.547 6.541-1.641 9.121-1.094 2.582-2.575 4.7-4.443 6.36-1.87 1.658-4.031 2.888-6.485 3.685-2.457.8-5.072 1.2-7.847 1.2h-7.285v20.364h-11.771V58.069z" fill="#FFF"/>
    </g>
</svg>
